<?xml version="1.0" standalone="no"?>
<!DOCTYPE svg PUBLIC "-//W3C//DTD SVG 1.1//EN" "http://www.w3.org/Graphics/SVG/1.1/DTD/svg11.dtd" >
<svg xmlns="http://www.w3.org/2000/svg" xmlns:xlink="http://www.w3.org/1999/xlink" version="1.1">
<metadata></metadata>
<defs>
<font id="ubuntu_monobold" horiz-adv-x="1024" >
<font-face units-per-em="2048" ascent="1638" descent="-410" />
<missing-glyph horiz-adv-x="500" />
<glyph unicode="&#xd;" />
<glyph />
<glyph unicode=" " />
<glyph unicode="!" d="M657 932q0 -74 -3 -132.5t-8 -112.5t-12 -107.5t-16 -118.5h-208q-10 66 -17.5 120t-13.5 107t-9 111.5t-3 132.5v336h290v-336zM682 145q0 -80 -52 -125t-118 -45t-118 45.5t-52 124.5q0 78 52 123t118 45t118 -45t52 -123z" />
<glyph unicode="&#x22;" d="M850 1391v-101q0 -51 -5 -111.5t-14.5 -124t-19.5 -125t-20 -114.5h-148q-10 53 -20.5 114.5t-19.5 125t-15 125t-6 112.5v99h268zM446 1391v-101q0 -51 -5 -111.5t-14 -124t-20.5 -125t-21.5 -114.5h-145q-10 53 -20.5 114.5t-20 125t-15.5 125t-6 112.5v99h268z" />
<glyph unicode="#" d="M283 956l59 312h209l-62 -312h164l60 312h209l-60 -312h127v-208h-168l-43 -226h211v-209h-250l-59 -313h-209l59 313h-163l-58 -313h-209l60 313h-123v209h162l43 226h-205v208h246zM408 522h163l41 226h-161z" />
<glyph unicode="$" d="M395 18q-129 12 -207.5 41t-117.5 52l77 200q66 -31 154 -56.5t186 -25.5q115 0 160 30t45 93q0 37 -17.5 63.5t-51 48t-82.5 39t-111 40.5q-59 20 -116.5 46.5t-102.5 64.5t-72.5 92.5t-27.5 134.5q0 57 15 110t49 98.5t89 79t135 52.5v198h234v-188q94 -8 166.5 -28.5 t113.5 -37.5l-57 -211q-59 25 -140 44.5t-167 19.5q-98 0 -136 -35t-38 -82q0 -33 13 -54.5t41 -37.5t67 -31.5t92 -34.5q80 -31 147.5 -64.5t116.5 -77.5t76.5 -103.5t27.5 -139.5q0 -55 -16 -109t-54 -100.5t-100.5 -80t-156.5 -48.5v-219h-234v217z" />
<glyph unicode="%" d="M186 0h-182l834 1268h182zM543 291q0 156 61.5 236.5t167.5 80.5q109 0 170.5 -81t61.5 -236q0 -156 -61.5 -237t-170.5 -81q-106 0 -167.5 81t-61.5 237zM840 291q0 86 -20.5 123t-49.5 37t-46 -37t-17 -123t17 -121t46 -35t49.5 35t20.5 121zM20 979q0 156 61.5 236.5 t166.5 80.5q111 0 172 -80.5t61 -236.5t-61.5 -238t-171.5 -82q-104 0 -166 82t-62 238zM315 979q0 86 -20.5 122t-46.5 36q-29 0 -47.5 -36t-18.5 -122t18.5 -121t47.5 -35q27 0 47 35t20 121z" />
<glyph unicode="&#x26;" d="M748 0q-23 59 -50 109q-70 -61 -143.5 -93t-144.5 -32q-92 0 -161 28.5t-115 76.5t-68.5 111.5t-22.5 133.5q0 98 50 187t151 151q-49 68 -81 141.5t-32 153.5q0 82 28.5 144.5t76 103t105.5 61t120 20.5q57 0 112.5 -18t98.5 -54t69.5 -90.5t26.5 -125.5 q0 -98 -59.5 -191.5t-186.5 -159.5q41 -49 86 -100t92 -104q29 104 31 247l209 -26q-2 -115 -29.5 -213.5t-70.5 -177.5q49 -68 88 -139.5t59 -143.5h-239zM598 256q-57 72 -118.5 139.5t-121.5 132.5q-45 -31 -72.5 -74.5t-27.5 -107.5q0 -70 36 -121t122 -51q47 0 94 18.5 t88 63.5zM348 979q0 -45 18.5 -91t51.5 -95q66 37 100.5 97t34.5 116q0 53 -25.5 80.5t-66.5 27.5q-51 0 -82 -34.5t-31 -100.5z" />
<glyph unicode="'" d="M649 1391v-136q0 -51 -5 -111.5t-14 -124t-19.5 -126t-20.5 -115.5h-148q-10 53 -20 115.5t-19.5 126t-15.5 124t-6 111.5v136h268z" />
<glyph unicode="(" d="M426 545q0 -252 111.5 -437.5t308.5 -300.5l-117 -155q-279 154 -407.5 383t-128.5 510q0 283 133 519t411 390l117 -156q-197 -115 -312.5 -307t-115.5 -446z" />
<glyph unicode=")" d="M602 545q0 254 -115.5 446.5t-312.5 306.5l117 156q279 -154 412 -390.5t133 -518.5q0 -281 -129 -510.5t-408 -382.5l-117 155q197 115 308.5 300.5t111.5 437.5z" />
<glyph unicode="*" d="M516 766q-6 -25 -18.5 -59.5t-25.5 -69.5t-28.5 -65.5t-29.5 -51.5l-39 -51l-193 137l39 51q14 20 40 45t53.5 49.5t56 46t49.5 36.5h-62.5t-72.5 3t-72 9t-57 14l-62 21l76 223l61 -19q23 -8 53.5 -25.5t61.5 -38t60.5 -40.5t50.5 -37q-8 25 -18.5 58.5t-19.5 70.5 t-15.5 72t-6.5 59v64h238v-64q0 -25 -6 -59.5t-15.5 -71.5t-20.5 -70.5t-20 -58.5q20 14 51 34.5t63 40t62.5 36t55.5 24.5l59 21l74 -228l-61 -18q-25 -8 -60 -12t-71.5 -7.5t-72.5 -3.5h-63q23 -14 51.5 -35.5t57.5 -45t53.5 -48t38.5 -45.5l39 -51l-193 -139l-36 51 q-14 20 -30 51t-30 67t-25.5 69.5t-19.5 60.5z" />
<glyph unicode="+" d="M82 641h321v356h218v-356h321v-207h-321v-356h-218v356h-321v207z" />
<glyph unicode="," d="M258 -150q37 8 75 14.5t71.5 19t60.5 35t43 61.5q-78 8 -121 61t-43 119q0 80 52.5 131t131.5 51q86 0 134.5 -57.5t48.5 -155.5q0 -72 -22.5 -143.5t-73 -133t-130 -106.5t-194.5 -59z" />
<glyph unicode="-" d="M231 649h562v-248h-562v248z" />
<glyph unicode="." d="M696 162q0 -90 -55 -137.5t-127 -47.5q-37 0 -69.5 12.5t-58.5 36t-41 57.5t-15 79q0 43 15 76.5t41 56t58.5 35t69.5 12.5q72 0 127 -47t55 -133z" />
<glyph unicode="/" d="M358 -338h-262l574 1770h258z" />
<glyph unicode="0" d="M952 637q0 -336 -112.5 -500t-327.5 -164t-327.5 164t-112.5 500q0 332 114.5 495.5t325.5 163.5q215 0 327.5 -162.5t112.5 -496.5zM725 637q0 217 -54.5 330.5t-158.5 113.5q-102 0 -157.5 -113.5t-55.5 -330.5q0 -219 55.5 -333t157.5 -114q104 0 158.5 114t54.5 333z M627 657q0 -55 -32 -95t-81 -40q-53 0 -84 40t-31 95t31 96.5t84 41.5q49 0 81 -41.5t32 -96.5z" />
<glyph unicode="1" d="M436 209v709q-57 -41 -131 -73t-125 -50l-82 209q49 18 106.5 46.5t115 63.5t108.5 74t88 80h172v-1059h252v-209h-770v209h266z" />
<glyph unicode="2" d="M889 934q0 -66 -24.5 -126t-65.5 -117.5t-92.5 -111t-104.5 -102.5q-27 -25 -61.5 -58.5t-65.5 -69.5t-52.5 -72.5t-21.5 -67.5h545v-209h-827q-6 20 -5 51t1 43q0 102 37.5 188.5t96 159t125 135t125 120t96.5 110.5t38 108q0 78 -47 120t-119 42q-59 0 -125 -28.5 t-129 -96.5l-125 176q82 86 189.5 127t214.5 41q78 0 149.5 -22.5t126.5 -67.5t88 -113.5t33 -158.5z" />
<glyph unicode="3" d="M436 -27q-47 0 -99 7.5t-100.5 17.5t-89.5 22.5t-63 22.5l49 211q47 -20 122 -43t179 -23q129 0 181.5 55.5t52.5 137.5q0 100 -80 140t-203 40h-78v209h94q39 0 78 8t70 26.5t50 49.5t19 78q0 70 -41.5 109.5t-115.5 39.5q-72 0 -142.5 -23.5t-121.5 -58.5l-91 185 q55 37 146.5 74.5t206.5 37.5q106 0 185 -26.5t130 -74.5t75.5 -113.5t24.5 -141.5t-43 -145.5t-114 -106.5q98 -41 152.5 -121t54.5 -190q0 -88 -29 -162t-88 -128t-151.5 -84t-219.5 -30z" />
<glyph unicode="4" d="M584 952q-37 -47 -76 -100t-77 -111.5t-72.5 -118t-61.5 -116.5h287v446zM836 1268v-762h137v-207h-137v-299h-252v299h-529v184q39 80 100.5 181.5t135.5 208t155.5 210t163.5 185.5h226z" />
<glyph unicode="5" d="M657 373q0 53 -17 97t-69.5 76t-148.5 49t-252 17q20 172 32.5 337t18.5 319h647v-209h-436q-4 -66 -10 -137.5t-10 -116.5q254 -16 378.5 -123t124.5 -299q0 -88 -30.5 -163t-94 -130t-157.5 -86t-219 -31q-49 0 -100.5 6.5t-98.5 15.5t-85 21.5t-58 22.5l51 209 q45 -23 114.5 -41.5t174.5 -18.5q74 0 122 16.5t75.5 42t37.5 58.5t10 68z" />
<glyph unicode="6" d="M494 602q-39 0 -80 -8t-68 -23q-2 -18 -3 -36.5t-1 -38.5q0 -59 8 -113.5t28.5 -97.5t56.5 -69t89 -26q43 0 74 20.5t50.5 51.5t28.5 68t9 71q0 96 -43 148.5t-149 52.5zM526 811q111 0 188 -33t126 -88t70.5 -129t21.5 -155q0 -74 -23.5 -150t-73 -139.5t-125 -103.5 t-180.5 -40q-213 0 -324.5 132.5t-111.5 412.5q0 184 54.5 325.5t154.5 238t241.5 145.5t313.5 49l14 -215q-82 -2 -159.5 -16.5t-143 -48t-113.5 -87t-71 -133.5q39 16 75.5 25.5t65.5 9.5z" />
<glyph unicode="7" d="M270 0q6 131 43 277.5t89.5 290t114 271.5t116.5 220h-533v209h828v-191q-55 -63 -121 -178t-124 -260t-102 -310t-55 -329h-256z" />
<glyph unicode="8" d="M913 967q0 -88 -43 -173t-135 -143q117 -68 165 -147.5t48 -175.5q0 -61 -23.5 -125t-75.5 -114t-136 -83t-207 -33q-96 0 -175 23.5t-135.5 68t-87 109t-30.5 143.5q0 96 45 181.5t141 150.5q-90 61 -122.5 131t-32.5 148q0 61 21.5 127.5t68.5 120t124.5 88t192.5 34.5 q182 0 289.5 -89.5t107.5 -241.5zM711 332q0 41 -15.5 71.5t-49.5 56t-87 51.5t-127 54q-57 -47 -88 -105.5t-31 -111.5q0 -82 58.5 -124t138.5 -42q92 0 146.5 44.5t54.5 105.5zM512 1090q-66 0 -116 -37t-50 -109t47 -117t166 -94q63 47 90 103.5t27 109.5q0 72 -48 108 t-116 36z" />
<glyph unicode="9" d="M535 674q39 0 81.5 8t69.5 23q2 16 3 39.5t1 46.5q0 51 -9 103t-30.5 95t-57.5 69.5t-89 26.5q-45 0 -77 -17t-51.5 -46t-28.5 -68t-9 -82q0 -96 45.5 -147t151.5 -51zM502 465q-111 0 -188.5 31.5t-127 87t-72 128t-22.5 156.5q0 74 25.5 151t76 139.5t126 102 t178.5 39.5q213 0 325.5 -143t112.5 -399q0 -184 -53.5 -326.5t-152.5 -239t-239.5 -146.5t-312.5 -50l-8 217q164 2 293 70.5t182 216.5q-80 -35 -143 -35z" />
<glyph unicode=":" d="M696 162q0 -90 -55 -137.5t-127 -47.5q-37 0 -69.5 12.5t-58.5 36t-41 57.5t-15 79q0 43 15 76.5t41 56t58.5 35t69.5 12.5q72 0 127 -47t55 -133zM696 783q0 -90 -55 -137.5t-127 -47.5q-37 0 -69.5 12.5t-58.5 36t-41 57.5t-15 79q0 43 15 76.5t41 56t58.5 35 t69.5 12.5q72 0 127 -47t55 -133z" />
<glyph unicode=";" d="M242 -150q37 8 75 14.5t71.5 19t60.5 35t43 61.5q-78 8 -121 61t-43 119q0 80 52.5 131t131.5 51q86 0 134.5 -57.5t48.5 -155.5q0 -72 -22.5 -143.5t-73 -133t-130 -106.5t-194.5 -59zM696 783q0 -90 -55 -137.5t-127 -47.5q-37 0 -69.5 12.5t-58.5 36t-41 57.5t-15 79 q0 43 15 76.5t41 56t58.5 35t69.5 12.5q72 0 127 -47t55 -133z" />
<glyph unicode="&#x3c;" d="M92 641l787 330l69 -221l-573 -224l573 -223l-69 -221l-787 332v227z" />
<glyph unicode="=" d="M82 842h860v-209h-860v209zM82 442h860v-209h-860v209z" />
<glyph unicode="&#x3e;" d="M940 412l-786 -332l-72 221l575 223l-575 224l72 221l786 -330v-227z" />
<glyph unicode="?" d="M340 461q-2 10 -2 31q0 82 43 156.5t113 131.5q47 39 88 83t41 95q0 61 -43 93t-109 32t-127 -19.5t-133 -53.5l-70 192q72 45 168.5 69.5t190.5 24.5q117 0 192.5 -31.5t118.5 -78.5t60.5 -103.5t17.5 -107.5q0 -59 -23.5 -108.5t-59.5 -92.5t-77 -81t-77 -74.5 t-59.5 -75.5t-23.5 -82h-229zM641 145q0 -80 -52 -125t-118 -45q-33 0 -63.5 11.5t-55 34t-39 53t-14.5 71.5q0 39 14.5 71t39 53.5t55 32.5t63.5 11t63.5 -11t54 -32.5t38 -53.5t14.5 -71z" />
<glyph unicode="@" d="M958 113q-55 -23 -127.5 -34t-125.5 -11q-78 0 -144.5 23.5t-116 73.5t-77 131t-27.5 198q0 86 15.5 161.5t52 132t95 89t144.5 32.5q39 0 96 -10v33q0 78 -49 132t-143 54q-68 0 -128.5 -28.5t-104.5 -100t-69.5 -191.5t-25.5 -302q0 -143 21.5 -254t74 -185.5 t139.5 -113.5t216 -39q96 0 151.5 10t71.5 16l23 -178q-35 -8 -64 -13t-57.5 -8t-58 -5t-66.5 -2q-135 0 -252 36.5t-202 128t-134 242t-49 377.5q0 221 42 371.5t113.5 244t164 133t194.5 39.5q84 0 157.5 -25.5t129 -80.5t88 -144.5t32.5 -216.5v-716zM555 506 q0 -39 5 -80t19.5 -74t40 -54.5t66.5 -21.5q27 0 57 7v409q-16 4 -30.5 6t-28.5 2q-39 0 -63.5 -17t-39 -45t-20.5 -62.5t-6 -69.5z" />
<glyph unicode="A" d="M735 0l-59 293h-338l-57 -293h-263q90 375 182.5 683t178.5 585h274q90 -279 179.5 -591t173.5 -677h-271zM510 1022q-20 -72 -37.5 -136.5t-33 -127t-29 -126t-25.5 -130.5h248q-12 68 -24.5 131t-28 125.5t-33 127t-37.5 136.5z" />
<glyph unicode="B" d="M961 383q0 -115 -39 -191.5t-105.5 -122.5t-158 -65.5t-195.5 -19.5q-84 0 -174 9t-178 27v1231q72 12 157.5 21.5t169.5 9.5q143 0 233.5 -29.5t141.5 -78t69.5 -107.5t18.5 -119q0 -90 -44 -159.5t-118 -110.5q129 -47 175.5 -127t46.5 -168zM362 555v-344q27 -4 59 -6 t62 -2q43 0 84 7t73 26.5t52.5 55.5t20.5 91q0 92 -58.5 132t-156.5 40h-136zM461 764q96 0 145 42t49 116q0 45 -14 72.5t-38.5 43t-57.5 20.5t-68 5q-29 0 -59.5 -2t-55.5 -6v-291h99z" />
<glyph unicode="C" d="M606 -27q-268 0 -409.5 172t-141.5 490q0 158 43 280.5t120 207.5t182.5 129t230.5 44q68 0 122 -11t95 -25.5t68.5 -31t41.5 -24.5l-65 -200q-47 31 -113.5 52t-152.5 21q-59 0 -115.5 -21.5t-100.5 -71.5t-72 -134t-28 -209q0 -217 75 -332.5t245 -115.5 q98 0 162.5 22.5t103.5 44.5l64 -199q-53 -33 -144.5 -60.5t-210.5 -27.5z" />
<glyph unicode="D" d="M362 205q10 -2 22.5 -2h23.5q86 0 144 32.5t94 90t51.5 136.5t15.5 173q0 82 -12.5 159.5t-43 137t-84 95.5t-137.5 36q-16 0 -36.5 -1t-37.5 -5v-852zM969 635q0 -176 -44 -300t-122 -202t-185.5 -113.5t-236.5 -35.5q-68 0 -132.5 7t-137.5 23v1237q86 18 161.5 24.5 t141.5 6.5q125 0 228 -37t175 -115.5t112 -200.5t40 -294z" />
<glyph unicode="E" d="M129 0v1268h768v-209h-516v-285h448v-209h-448v-356h561v-209h-813z" />
<glyph unicode="F" d="M129 0v1268h776v-209h-524v-307h459v-209h-459v-543h-252z" />
<glyph unicode="G" d="M639 1077q-90 0 -151.5 -32.5t-101.5 -91t-57.5 -139.5t-17.5 -179q0 -227 72 -334.5t211 -107.5q23 0 49.5 2t48.5 6v463h252v-633q-45 -16 -140 -37t-231 -21q-119 0 -214 42t-162.5 125t-104.5 207t-37 288q0 162 43 285.5t117 207.5t174 126t215 42q74 0 132.5 -11 t101.5 -25.5t70.5 -31t41.5 -24.5l-65 -200q-45 29 -110.5 51t-135.5 22z" />
<glyph unicode="H" d="M932 1268v-1268h-252v559h-336v-559h-252v1268h252v-500h336v500h252z" />
<glyph unicode="I" d="M111 0v209h276v850h-276v209h804v-209h-274v-850h274v-209h-804z" />
<glyph unicode="J" d="M897 424q0 -92 -23.5 -174t-78 -143.5t-140.5 -97.5t-209 -36q-129 0 -215 33t-145 80l96 201q51 -33 113.5 -63.5t128.5 -30.5q98 0 158.5 52t60.5 193v621h-424v209h678v-844z" />
<glyph unicode="K" d="M717 0q-23 72 -65 155t-93 161.5t-107.5 147t-107.5 116.5v-580h-252v1268h252v-527q45 57 94 127t93 139.5t81 137t62 123.5h284q-29 -55 -68.5 -126t-90.5 -147.5t-109.5 -156.5t-122.5 -154q63 -61 129 -141t124.5 -171t105.5 -186.5t75 -185.5h-284z" />
<glyph unicode="L" d="M942 0h-797v1268h254v-1059h543v-209z" />
<glyph unicode="M" d="M330 1268q14 -43 35.5 -110.5t46 -145.5t49 -158t47.5 -147q25 76 51.5 156.5t51 155.5t45 140.5t36.5 108.5h209q14 -166 27.5 -324t23 -312.5t15.5 -311t10 -320.5h-232l13 985l-156 -536h-184l-150 536l11 -985h-232q6 156 13.5 324t15.5 333.5t19 321.5t26 289h209z " />
<glyph unicode="N" d="M727 0q-86 211 -187.5 421t-217.5 421v-842h-228v1268h203q57 -90 114.5 -195.5t112 -210t100.5 -203t78 -172.5v781h228v-1268h-203z" />
<glyph unicode="O" d="M311 635q0 -92 7.5 -173t29 -140.5t60 -94t104.5 -34.5q63 0 103 34.5t61.5 95t29 140.5t7.5 172t-7.5 173t-29 140.5t-60 94t-104.5 34.5t-104.5 -34.5t-60 -95t-29 -140.5t-7.5 -172zM55 635q0 328 121 494.5t336 166.5q223 0 340 -166.5t117 -494.5t-119 -495 t-336 -167q-223 0 -341 167t-118 495z" />
<glyph unicode="P" d="M459 1282q242 0 375 -99.5t133 -324.5q0 -227 -134.5 -328.5t-379.5 -101.5h-91v-428h-251v1251q37 8 83 14.5t93 9.5t92 5t80 2zM487 1063q-23 0 -62.5 -1t-62.5 -5v-410h103q121 0 182.5 48t61.5 165q0 111 -61 157t-161 46z" />
<glyph unicode="Q" d="M55 629q0 328 121 494.5t336 166.5q223 0 340 -167t117 -494q0 -287 -92.5 -452t-266.5 -200q23 -51 110 -84.5t238 -60.5l-53 -180q-240 33 -361.5 109.5t-144.5 220.5q-166 41 -255 203.5t-89 443.5zM311 629q0 -92 7.5 -172t29 -140.5t60 -95.5t104.5 -35q63 0 103 35 t61.5 95.5t29 140.5t7.5 172t-7.5 173t-29 140t-60 94t-104.5 35t-104.5 -35t-60 -95t-29 -140t-7.5 -172z" />
<glyph unicode="R" d="M438 1282q109 0 197 -24.5t151.5 -76t97.5 -130t34 -185.5q0 -111 -45.5 -201t-149.5 -137q35 -53 74 -117.5t75.5 -135t70.5 -141.5t58 -134h-264q-47 123 -109.5 236.5t-133.5 230.5h-132v-467h-251v1249q37 8 81 15.5t89 10.5t85.5 5t71.5 2zM662 868 q0 100 -61.5 147.5t-162.5 47.5q-14 0 -34.5 -1t-41.5 -5v-381h56q129 0 186.5 50t57.5 142z" />
<glyph unicode="S" d="M475 184q63 0 105.5 13.5t67 37t33.5 53t9 60.5q0 39 -22.5 70t-57.5 54.5t-78 43t-86 35.5q-57 20 -118.5 47t-111.5 68t-83 101t-33 151q0 178 116 278t319 100q117 0 203.5 -26.5t146.5 -59.5l-74 -194q-51 29 -113.5 49t-144.5 20q-201 0 -201 -145q0 -37 20.5 -64.5 t52.5 -49t72 -38t78 -30.5q59 -23 124 -50.5t119 -73.5t89 -114.5t35 -173.5q0 -178 -115.5 -275.5t-351.5 -97.5q-158 0 -252 34t-141 63l74 204q55 -33 131.5 -61.5t187.5 -28.5z" />
<glyph unicode="T" d="M973 1268v-209h-334v-1059h-254v1059h-334v209h922z" />
<glyph unicode="U" d="M508 -27q-123 0 -206 34t-132 97.5t-69.5 153.5t-20.5 201v809h254v-793q0 -80 8 -134t27.5 -87t54.5 -47t88 -14t88 14t55.5 48t28.5 88t8 134v791h252v-809q0 -111 -20.5 -201t-71.5 -153.5t-135 -97.5t-209 -34z" />
<glyph unicode="V" d="M381 0q-49 141 -104.5 319.5t-104.5 355.5t-88 334.5t-57 258.5h266q12 -98 36.5 -228.5t54.5 -268.5t63.5 -272t66.5 -241q33 104 65.5 238.5t61.5 272.5t53.5 269t40.5 230h264q-25 -123 -60.5 -274.5t-81.5 -318.5t-101.5 -340t-114.5 -335h-260z" />
<glyph unicode="W" d="M606 819q8 -39 24.5 -96t36 -127t43 -149.5t46.5 -163.5q0 106 -2 228t-4 249t-4.5 257t-2.5 251h234q-6 -156 -12.5 -321t-14.5 -327.5t-19 -320.5t-26 -299h-209q-45 129 -90 277.5t-90 283.5q-45 -129 -94 -280.5t-90 -280.5h-209q-16 141 -28.5 300t-22 321.5 t-15.5 327.5t-10 319h234q-2 -121 -4.5 -250t-4.5 -257t-4 -250t-2 -228q18 66 42 143.5t45.5 153t40 139t28.5 100.5h184z" />
<glyph unicode="X" d="M729 0q-39 104 -95 231t-118 254q-59 -121 -118.5 -251t-102.5 -234h-272q20 55 60 133t88 168t101.5 185.5t102.5 183.5l-332 598h272l201 -406l211 406h254l-324 -592q55 -88 108.5 -184.5t99.5 -187.5t81 -170t55 -134h-272z" />
<glyph unicode="Y" d="M520 688q23 47 52.5 119t59.5 151.5t57.5 161.5t49.5 148h260q-39 -104 -77.5 -202.5t-81.5 -195t-92.5 -191.5t-106.5 -196v-483h-254v481q-113 199 -198 388.5t-162 398.5h270q47 -147 104.5 -300t118.5 -280z" />
<glyph unicode="Z" d="M911 1092q-88 -135 -161.5 -254t-137 -226.5t-120 -207t-107.5 -195.5h545v-209h-836v145q45 88 96.5 185.5t115 208t138 239.5t164.5 281h-487v209h790v-176z" />
<glyph unicode="[" d="M231 1432h568v-197h-328v-1376h328v-197h-568v1770z" />
<glyph unicode="\" d="M100 1432h258l574 -1770h-260z" />
<glyph unicode="]" d="M793 -338h-570v197h328v1376h-328v197h570v-1770z" />
<glyph unicode="^" d="M1006 633l-228 -111l-258 447l-258 -447l-229 111l379 635h215z" />
<glyph unicode="_" d="M16 -119h992v-219h-992v219z" />
<glyph unicode="`" d="M436 1415l324 -227l-92 -137l-357 172z" />
<glyph unicode="a" d="M514 180q41 0 80 1t68 5v222q-25 4 -60 7t-63 3q-39 0 -76 -5t-64.5 -17.5t-44 -35t-16.5 -59.5q0 -66 49 -93.5t127 -27.5zM492 987q119 0 197.5 -27.5t125.5 -78t67.5 -123t20.5 -162.5v-573q-55 -12 -163.5 -29t-243.5 -17q-92 0 -167 16.5t-128.5 54.5t-82 98.5 t-28.5 148.5q0 84 33 141.5t88 92t127 50t149 15.5q98 0 175 -16v30q0 72 -45.5 120t-155.5 48q-72 0 -138.5 -10t-107.5 -25l-35 203q47 16 133.5 29.5t178.5 13.5z" />
<glyph unicode="b" d="M707 487q0 135 -44.5 207t-134.5 72q-41 0 -80.5 -11.5t-68.5 -27.5v-522q29 -6 60.5 -8t54.5 -2q98 0 155.5 66t57.5 226zM963 481q0 -115 -31 -208t-90.5 -158.5t-145.5 -101.5t-196 -36q-98 0 -200.5 14.5t-172.5 37.5v1349l252 43v-481q53 25 102 34t99 9 q94 0 165.5 -36t119.5 -102.5t73 -158.5t25 -205z" />
<glyph unicode="c" d="M90 481q0 104 33 196.5t100.5 161t171 108.5t246.5 40q86 0 155.5 -12t141.5 -41l-55 -203q-41 14 -91.5 25.5t-127.5 11.5q-90 0 -150.5 -21.5t-97.5 -59.5t-53.5 -91t-16.5 -115q0 -133 75 -208.5t255 -75.5q59 0 123.5 8t118.5 26l36 -206q-53 -20 -128.5 -34 t-178.5 -14q-147 0 -252.5 39t-173 106.5t-99.5 160t-32 198.5z" />
<glyph unicode="d" d="M313 487q0 -129 48.5 -210.5t154.5 -81.5q31 0 57.5 2t55.5 6v524q-29 16 -66 27.5t-78 11.5q-90 0 -131 -72t-41 -207zM881 29q-70 -23 -170.5 -37.5t-196.5 -14.5q-225 0 -341 133.5t-116 364.5q0 236 97.5 372t287.5 136q51 0 100.5 -11t86.5 -32v438l252 43v-1392z " />
<glyph unicode="e" d="M63 473q0 127 39 223.5t102.5 161t145.5 97t168 32.5q213 0 323.5 -126t110.5 -367q0 -25 -1 -51.5t-3 -43.5h-624q0 -94 77.5 -148t200.5 -54q76 0 144.5 16t115.5 33l35 -215q-66 -23 -139.5 -38.5t-165.5 -15.5q-123 0 -220.5 32t-166 94.5t-105.5 154.5t-37 215z M709 573q0 39 -10.5 75t-33 64.5t-57.5 46t-86 17.5q-49 0 -85 -16.5t-59.5 -45t-36.5 -65.5t-17 -76h385z" />
<glyph unicode="f" d="M285 0v754h-211v209h211v55q0 117 33.5 193.5t91 122.5t131 65.5t151.5 19.5q80 0 164 -14t152 -47l-43 -205q-47 16 -118 33.5t-134 17.5q-35 0 -67 -6t-55.5 -26.5t-37.5 -58.5t-14 -99v-51h395v-209h-395v-754h-254z" />
<glyph unicode="g" d="M324 512q0 -119 43 -181.5t135 -62.5q41 0 76.5 10.5t64.5 26.5v463q-29 6 -51.5 8t-46.5 2q-221 0 -221 -266zM897 117q0 -236 -113.5 -348.5t-365.5 -112.5q-90 0 -173 18.5t-159 42.5l47 213q59 -23 125 -42t164 -19q66 0 108.5 15.5t67.5 42t35 62.5t10 77v38 q-53 -20 -97 -30.5t-95 -10.5q-188 0 -285.5 119t-97.5 330q0 238 131 354.5t356 116.5q158 0 342 -51v-815z" />
<glyph unicode="h" d="M129 0v1378l252 43v-467q31 10 74 19.5t75 9.5q106 0 178 -31.5t115 -90t61.5 -139.5t18.5 -179v-543h-252v510q0 135 -30.5 194.5t-116.5 59.5q-35 0 -69 -8t-54 -15v-741h-252z" />
<glyph unicode="i" d="M582 1239q0 -74 -47.5 -117t-112.5 -43q-66 0 -112 43t-46 117q0 76 46 119t112 43t113 -43t47 -119zM956 41q-78 -37 -146.5 -50.5t-125.5 -13.5q-98 0 -164.5 29t-106.5 83t-56.5 132t-16.5 178v355h-266v209h518v-596q0 -86 31.5 -128t105.5 -42q35 0 84 9t111 38z " />
<glyph unicode="j" d="M819 63q0 -117 -28.5 -195.5t-78.5 -126.5t-119 -68.5t-149 -20.5q-98 0 -182 24.5t-162 63.5l78 213q51 -29 124 -54.5t132 -25.5q63 0 98 38t35 140v703h-389v209h641v-900zM788 1239q0 -74 -47 -117t-112 -43q-66 0 -112 43t-46 117q0 76 46 119t112 43t112.5 -43 t46.5 -119z" />
<glyph unicode="k" d="M383 582q37 43 75 91t73.5 99t68.5 99.5t57 91.5h304q-37 -47 -84.5 -102.5t-97.5 -113t-100 -110.5t-91 -98q51 -49 110.5 -118t116.5 -142.5t105.5 -147.5t76.5 -131h-288q-25 51 -65 115.5t-85 127t-91 119t-85 93.5v-455h-254v1378l254 43v-839z" />
<glyph unicode="l" d="M956 41q-6 -4 -27.5 -14.5t-56 -21.5t-85 -19.5t-113.5 -8.5q-174 0 -254 103.5t-80 302.5v817h-266v209h518v-1044q0 -98 39 -133t98 -35q76 0 127 20.5t68 26.5z" />
<glyph unicode="m" d="M702 973q80 0 131.5 -24.5t81 -74t40 -124t10.5 -175.5v-575h-205v588q0 57 -7.5 92t-18.5 53.5t-26.5 24.5t-31.5 6q-18 0 -39 -3t-37 -11q6 -39 10 -86.5t4 -104.5v-192h-204v221q0 98 -19.5 137t-62.5 39q-12 0 -29.5 -2t-34.5 -6v-756h-205v926q80 23 158 35t137 12 q53 0 95.5 -13.5t72.5 -44.5q35 23 82 40.5t98 17.5z" />
<glyph unicode="n" d="M129 932q68 18 167 34.5t216 16.5q115 0 190.5 -31.5t119.5 -90t62.5 -139.5t18.5 -179v-543h-252v510q0 135 -30.5 194.5t-124.5 59.5q-29 0 -56.5 -2t-58.5 -6v-756h-252v932z" />
<glyph unicode="o" d="M967 483q0 -115 -33 -208t-92.5 -160.5t-142.5 -104.5t-185 -37t-185 37t-143.5 104.5t-93.5 161t-33 207.5q0 113 34 206t94.5 159.5t144.5 102.5t182 36q100 0 183 -36t143.5 -102.5t93.5 -159.5t33 -206zM315 481q0 -129 46.5 -208.5t148.5 -79.5q98 0 148.5 79.5 t50.5 208.5t-46.5 208t-148.5 79q-98 0 -148.5 -79t-50.5 -208z" />
<glyph unicode="p" d="M705 473q0 129 -51.5 212t-155.5 83q-29 0 -62 -3l-55 -5v-529q25 -16 65.5 -26t81.5 -10q90 0 133.5 72.5t43.5 205.5zM961 481q0 -111 -25 -204t-72 -159.5t-118.5 -103.5t-165.5 -37q-96 0 -199 48v-363h-252v1270q70 23 171 37t200 14q223 0 342 -135.5t119 -366.5z " />
<glyph unicode="q" d="M319 473q0 -133 44.5 -205.5t134.5 -72.5q43 0 80.5 10t66.5 26v529q-18 2 -50 5t-67 3q-104 0 -156.5 -83t-52.5 -212zM63 481q0 111 31 204t89.5 158.5t145.5 102.5t197 37q47 0 99.5 -4t101.5 -11t93 -16.5t77 -19.5v-1270h-252v365q-47 -23 -99 -36.5t-100 -13.5 q-94 0 -165.5 36t-119.5 101.5t-73 158.5t-25 208z" />
<glyph unicode="r" d="M895 707q-25 6 -58.5 12t-68.5 11t-67.5 7t-55.5 2q-53 0 -104.5 -5t-104.5 -19v-715h-254v899q100 37 206 59.5t247 22.5q20 0 58 -2t81 -7t87 -12.5t79 -19.5z" />
<glyph unicode="s" d="M467 190q92 0 141 13.5t49 54.5q0 27 -15 45.5t-43 31.5t-63.5 25.5t-74.5 24.5q-55 16 -112.5 37.5t-104.5 54.5t-78 83t-31 126q0 61 23.5 115.5t74 96.5t128 65.5t186.5 23.5q94 0 175 -14.5t140 -40.5l-39 -213q-35 10 -108.5 33.5t-165.5 23.5q-96 0 -130 -23.5 t-34 -50.5q0 -23 15.5 -40t41 -31.5t59.5 -27.5t72 -25q55 -18 115 -41t108 -57t78.5 -86t30.5 -128q0 -59 -22.5 -112.5t-74.5 -92t-136 -61.5t-207 -23q-125 0 -213 29t-141 51l39 211q72 -29 152.5 -53.5t164.5 -24.5z" />
<glyph unicode="t" d="M293 754h-219v209h219v241l252 41v-282h403v-209h-403v-389q0 -53 10 -86t28.5 -51.5t45 -24.5t59.5 -6q35 0 64.5 2t57.5 7t57.5 15t64.5 27l35 -217q-70 -29 -151 -41.5t-157 -12.5q-88 0 -155.5 14.5t-114.5 55.5t-71.5 116t-24.5 195v396z" />
<glyph unicode="u" d="M897 33q-70 -18 -169 -37t-216 -19q-119 0 -194.5 33t-119.5 93.5t-60.5 142.5t-16.5 180v537h252v-504q0 -133 31.5 -197.5t123.5 -64.5q57 0 115 10v756h254v-930z" />
<glyph unicode="v" d="M397 0q-92 182 -187 427t-181 536h264q18 -78 43.5 -166t54.5 -177.5t58.5 -173.5t56.5 -153q27 70 59.5 153.5t64.5 173t61.5 177.5t47.5 166h256q-86 -291 -190.5 -536t-196.5 -427h-211z" />
<glyph unicode="w" d="M659 0q-23 63 -42 116.5t-36.5 103.5t-35 104.5t-35.5 119.5q-20 -66 -36.5 -118t-34 -103t-36 -104t-45.5 -119h-190q-25 90 -46.5 199.5t-40 233.5t-32.5 257t-26 273h215q8 -178 17 -348.5t34 -350.5q27 78 46 144.5t34.5 127t29 117t27.5 115.5h182 q12 -59 25.5 -115.5t29 -117t33 -127t41.5 -144.5q12 94 20.5 180t13.5 171t8 170t7 178h215q-23 -281 -62.5 -529t-88.5 -434h-191z" />
<glyph unicode="x" d="M520 662l197 301h256l-311 -463q49 -59 96 -126t90 -134.5t78 -129t59 -110.5h-262q-55 104 -110.5 186t-104.5 148q-61 -82 -110.5 -160t-100.5 -174h-256q31 57 71 119.5t84 127t92 128t93 121.5l-338 467h264z" />
<glyph unicode="y" d="M967 963q-39 -135 -75 -265.5t-75 -254.5t-83 -242.5t-95 -231.5q-39 -82 -77 -141t-84 -97t-102.5 -56.5t-131.5 -18.5q-63 0 -115.5 10t-87.5 27l47 211q41 -18 73 -25.5t68 -7.5q74 0 119 49t72 117q-90 180 -180 412.5t-164 513.5h262q18 -76 41.5 -162t50.5 -172 t56.5 -169t60.5 -155q20 72 42.5 155t43 168t40 171t36.5 164h258z" />
<glyph unicode="z" d="M872 778q-29 -33 -82 -97.5t-115.5 -144t-125 -166.5t-111.5 -161h455v-209h-756v154q47 78 102.5 159.5t111 160.5t108.5 150.5t96 129.5h-397v209h714v-185z" />
<glyph unicode="{" d="M383 545q111 -20 159 -90t48 -201v-231q0 -86 24.5 -125t90.5 -39h190v-197h-213q-184 0 -255 80t-71 231v301q0 86 -26.5 130.5t-89.5 44.5h-111v196h111q63 0 89.5 44t26.5 128v303q0 152 71 232t255 80h213v-197h-190q-66 0 -90.5 -38t-24.5 -126v-231 q0 -131 -48 -200.5t-159 -94.5z" />
<glyph unicode="|" d="M387 1432h254v-1770h-254v1770z" />
<glyph unicode="}" d="M641 549q-111 20 -160 90t-49 201v231q0 86 -24.5 125t-90.5 39h-188v197h211q92 0 154.5 -20.5t100.5 -59.5t54.5 -97.5t16.5 -134.5v-301q0 -86 26.5 -130t89.5 -44h113v-196h-113q-63 0 -89.5 -44.5t-26.5 -128.5v-303q0 -76 -16.5 -134t-54.5 -97t-100.5 -59.5 t-154.5 -20.5h-211v197h188q66 0 90.5 37.5t24.5 126.5v231q0 131 49 200.5t160 94.5z" />
<glyph unicode="~" d="M707 350q-55 0 -103.5 21.5t-93.5 48t-87 48t-81 21.5q-16 0 -31.5 -4t-30 -17t-26.5 -40t-25 -72l-186 52q8 51 28.5 107t54.5 103.5t85 79t123 31.5q53 0 101 -21.5t93 -48t86 -48t82 -21.5q16 0 31.5 4t30 18.5t28 41t25.5 71.5l186 -51q-10 -51 -29.5 -107.5 t-54 -104.5t-84.5 -80t-122 -32z" />
<glyph unicode="&#xa0;" />
<glyph unicode="&#xa1;" d="M367 -2q0 74 3 132t8 111.5t12 106.5t16 119h208q8 -66 16.5 -119t14.5 -106.5t9 -111.5t3 -132v-336h-290v336zM342 784q0 80 52 124t118 44t118 -44t52 -124t-52 -124t-118 -44t-118 44t-52 124z" />
<glyph unicode="&#xa2;" d="M94 537q0 174 91 300t288 167v262h254v-252q49 -4 95 -16.5t93 -30.5l-53 -213q-39 14 -87 25.5t-122 11.5q-170 0 -235.5 -64.5t-65.5 -189.5q0 -123 71 -188.5t241 -65.5q59 0 120.5 8t112.5 24l35 -217q-39 -16 -90 -26.5t-115 -14.5v-256h-254v267q-98 18 -170 61 t-118 104.5t-68.5 139.5t-22.5 164z" />
<glyph unicode="&#xa3;" d="M479 711h303v-207h-303q0 -33 -2 -72t-5 -79t-7 -76.5t-10 -67.5h477v-209h-754q33 147 43 273t15 231h-158v207h158v106q0 137 29.5 228.5t82.5 146.5t130 77.5t173 22.5q72 0 136.5 -14t125.5 -41l-67 -201q-43 23 -80 31t-90 10q-43 0 -80 -9t-62.5 -34.5t-40 -68.5 t-14.5 -111v-143z" />
<glyph unicode="&#xa4;" d="M514 995q90 0 168 -32l135 129l170 -166l-131 -127q39 -74 39 -164t-39 -164l131 -127l-172 -168l-135 131q-39 -18 -79 -25.5t-87 -7.5t-87 7.5t-81 25.5l-135 -129l-170 166l131 127q-39 70 -39 164t39 164l-131 127l172 168l135 -131q74 32 166 32zM664 635 q0 78 -44.5 119t-105.5 41t-105 -41t-44 -119t44 -119t105 -41t105.5 41t44.5 119z" />
<glyph unicode="&#xa5;" d="M918 213h-277v-213h-254v213h-278v172h278v127h-278v172h206q-39 70 -80.5 146.5t-80.5 153.5t-73 149.5t-54 134.5h270q43 -131 95 -264.5t126 -280.5q145 291 221 545h260q-23 -59 -53.5 -132t-66 -151t-75.5 -154.5t-79 -146.5h193v-172h-277v-127h277v-172z" />
<glyph unicode="&#xa6;" d="M387 387h254v-725h-254v725zM387 1432h254v-725h-254v725z" />
<glyph unicode="&#xa7;" d="M168 82q41 -16 78 -28.5t73.5 -21.5t77.5 -13.5t90 -4.5q68 0 104 23.5t36 62.5q0 33 -38 58.5t-130 54.5q-72 25 -134.5 52.5t-109.5 66.5t-74.5 90t-27.5 123q0 74 32.5 139.5t110.5 138.5q-39 35 -62.5 80t-23.5 96q0 141 102.5 220t294.5 79q82 0 170 -19t160 -48 l-68 -201q-57 23 -119.5 38t-144.5 15q-84 0 -106.5 -24.5t-22.5 -54.5q0 -37 30 -61.5t116 -49.5q338 -98 338 -330q0 -78 -32 -135t-97 -119q51 -47 76.5 -93t25.5 -118q0 -154 -102.5 -226.5t-288.5 -72.5q-141 0 -239.5 24.5t-162.5 57.5zM420 727q-37 -29 -60.5 -71 t-23.5 -72q0 -35 9 -61.5t39 -49t84 -46.5t146 -52q37 31 59.5 71.5t22.5 71.5q0 37 -10 62.5t-41 47t-85 45t-140 54.5z" />
<glyph unicode="&#xa8;" d="M311 1102q-57 0 -99 36t-42 101q0 66 42 102.5t99 36.5q55 0 98.5 -36.5t43.5 -102.5t-43.5 -101.5t-98.5 -35.5zM719 1102q-57 0 -99 36t-42 101q0 66 42 102.5t99 36.5t99 -36.5t42 -102.5t-42 -101.5t-99 -35.5z" />
<glyph unicode="&#xa9;" d="M670 246q-35 -16 -73 -24.5t-73 -8.5q-59 0 -103 21.5t-73 57.5t-43 82t-14 95t14 96t43 84t73 59.5t105 22.5q33 0 69 -5t71 -21l-41 -111q-23 10 -45.5 13t-40.5 3q-66 0 -93.5 -41t-27.5 -92q0 -66 33.5 -103.5t95.5 -37.5q18 0 41.5 4t46.5 14zM51 473q0 125 39 219 t103.5 156.5t147.5 93.5t173 31q88 0 172 -31t148.5 -93.5t103.5 -156.5t39 -219t-39 -218t-103.5 -155.5t-148.5 -94.5t-172 -32q-90 0 -173 32t-147.5 94.5t-103.5 155.5t-39 218zM512 104q61 0 118.5 24t103.5 71t74 116.5t28 159.5q0 88 -28 156.5t-73 116t-103.5 72 t-119.5 24.5t-118.5 -24.5t-103.5 -72t-74 -116t-28 -156.5q0 -90 28 -159.5t74 -116.5t103.5 -71t118.5 -24z" />
<glyph unicode="&#xaa;" d="M537 719q29 0 55 2t43 4v141q-12 4 -36 7.5t-44 3.5q-55 0 -96 -15.5t-41 -62.5t33 -63.5t86 -16.5zM520 1294q88 0 147.5 -19.5t95.5 -55t51 -88t15 -115.5v-416q-41 -10 -120.5 -23.5t-186.5 -13.5q-143 0 -226 52.5t-83 179.5q0 61 24.5 103t66.5 66.5t97.5 36 t116.5 11.5q37 0 65.5 -4t51.5 -9v19q0 51 -31 79.5t-106 28.5q-51 0 -102.5 -7t-88.5 -19l-26 162q35 10 103 21t136 11z" />
<glyph unicode="&#xab;" d="M381 946l133 -82l-192 -342l192 -342l-129 -86l-283 428zM788 946l136 -82l-191 -342l191 -342l-131 -86l-279 428z" />
<glyph unicode="&#xac;" d="M918 86h-216v449h-610v208h826v-657z" />
<glyph unicode="&#xad;" d="M231 649h562v-248h-562v248z" />
<glyph unicode="&#xae;" d="M451 383v-158h-111v488q29 8 63.5 13t73.5 5q117 0 173.5 -45t56.5 -131q0 -98 -82 -145q25 -35 51 -83t53 -102h-117q-27 49 -47 87t-41 71h-73zM451 485h36q55 0 82 14.5t27 61.5q0 41 -33 54.5t-67 13.5q-12 0 -23.5 -1t-21.5 -3v-140zM51 473q0 125 39 219 t103.5 156.5t147.5 93.5t173 31q88 0 172 -31t148.5 -93.5t103.5 -156.5t39 -219t-39 -218t-103.5 -155.5t-148.5 -94.5t-172 -32q-90 0 -173 32t-147.5 94.5t-103.5 155.5t-39 218zM512 104q61 0 118.5 24t103.5 71t74 116.5t28 159.5q0 88 -28 156.5t-73 116t-103.5 72 t-119.5 24.5t-118.5 -24.5t-103.5 -72t-74 -116t-28 -156.5q0 -90 28 -159.5t74 -116.5t103.5 -71t118.5 -24z" />
<glyph unicode="&#xaf;" d="M221 1325h590v-178h-590v178z" />
<glyph unicode="&#xb0;" d="M516 1430q63 0 117.5 -19.5t93.5 -56.5t61.5 -90.5t22.5 -118.5q0 -66 -22.5 -118t-61.5 -89t-93 -56.5t-118 -19.5q-135 0 -215 75t-80 208t82 209t213 76zM516 1034q47 0 79 28t32 85t-32 83.5t-79 26.5t-80 -26.5t-33 -83.5t33 -85t80 -28z" />
<glyph unicode="&#xb1;" d="M82 209h860v-209h-860v209zM82 823h321v320h218v-320h321v-209h-321v-321h-218v321h-321v209z" />
<glyph unicode="&#xb2;" d="M772 1071q0 -80 -47 -134t-102 -101q-33 -27 -65 -57.5t-54 -59.5h287v-166h-527v51q0 90 48 162t141 149q51 43 80.5 74t29.5 64q0 29 -16.5 45t-46.5 16q-53 0 -98.5 -20.5t-75.5 -46.5l-95 141q47 41 121 74.5t156 33.5q143 0 203.5 -62.5t60.5 -162.5z" />
<glyph unicode="&#xb3;" d="M473 709q66 0 91.5 20.5t25.5 48.5q0 74 -129 74h-76v149h76q43 0 69.5 16.5t26.5 51.5q0 57 -80 57q-43 0 -84 -14t-80 -31l-69 144q45 29 113.5 50t134.5 21q74 0 124 -16t80.5 -44t43 -65.5t12.5 -78.5q0 -39 -17.5 -73t-58.5 -69q59 -27 84.5 -73t25.5 -101 q0 -51 -16 -94t-53 -75t-96.5 -50t-145.5 -18q-61 0 -132 13t-112 36l43 162q61 -27 104.5 -34t94.5 -7z" />
<glyph unicode="&#xb4;" d="M760 1223l-357 -172l-92 137l324 227z" />
<glyph unicode="&#xb5;" d="M373 963v-525q0 -72 10 -118t29.5 -73.5t49.5 -38.5t68 -11q29 0 58.5 3t54.5 7v756h254v-930q-66 -18 -162 -37t-200 -19q-33 0 -82.5 9.5t-92.5 21.5q4 -43 8.5 -83t4.5 -93v-170h-252v1301h252z" />
<glyph unicode="&#xb6;" d="M352 475q-156 35 -234.5 128t-78.5 271q0 98 36 174t102.5 128.5t160.5 79t211 26.5q98 0 201.5 -11t181.5 -32v-1577h-207v1407q-20 4 -69.5 6t-94.5 -2v-1411h-209v813z" />
<glyph unicode="&#xb7;" d="M696 543q0 -90 -55 -137.5t-127 -47.5q-37 0 -69.5 12.5t-58.5 36t-41 57.5t-15 79q0 43 15 76.5t41 56t58.5 35t69.5 12.5q72 0 127 -47t55 -133z" />
<glyph unicode="&#xb8;" d="M614 -49q68 -20 94.5 -60.5t26.5 -76.5q0 -47 -21.5 -78t-55 -49.5t-78.5 -26.5t-91 -8q-92 0 -163 22l26 129q12 -4 47 -11t68 -7q84 0 84 51q0 39 -74 64l-41 12q10 35 27.5 71.5t28.5 53.5h163q-10 -23 -20.5 -43t-20.5 -43z" />
<glyph unicode="&#xb9;" d="M283 553v166h204v328q-37 -23 -74.5 -38.5t-93.5 -37.5l-55 159q78 31 149.5 70t125.5 82h157v-563h168v-166h-581z" />
<glyph unicode="&#xba;" d="M866 926q0 -86 -25.5 -153.5t-72.5 -115t-112.5 -73t-145.5 -25.5t-145.5 25.5t-112.5 73t-73.5 115t-26.5 153.5t26.5 155.5t73.5 116.5t112.5 72.5t145.5 25.5t145.5 -25.5t112.5 -72.5t72.5 -116.5t25.5 -155.5zM657 926q0 88 -37.5 138t-109.5 50q-70 0 -110 -50 t-40 -138q0 -84 39 -133.5t111 -49.5t109.5 49.5t37.5 133.5z" />
<glyph unicode="&#xbb;" d="M645 94l-133 82l193 344l-193 342l129 84l283 -426zM238 94l-136 82l191 344l-191 342l131 84l279 -426z" />
<glyph unicode="&#xbc;" d="M940 512v-303h74v-129h-74v-80h-164v80h-254v92q47 88 93.5 166t111.5 174h213zM4 1141q70 31 121 62.5t100 78.5h129v-512h-174v307q-41 -23 -69.5 -35t-67.5 -22zM776 381q-33 -47 -58.5 -89t-45.5 -83h104v172zM918 1268l-650 -1268h-205l650 1268h205z" />
<glyph unicode="&#xbd;" d="M1006 129v-129h-428q-4 12 -4.5 24.5t-0.5 22.5q0 72 42 111t102 78l45 28q35 23 47 37t12 41q0 45 -53 45q-31 0 -61.5 -16.5t-55.5 -42.5l-84 108q39 47 98.5 70.5t125.5 23.5q80 0 142 -40.5t62 -127.5q0 -55 -22.5 -89.5t-55 -59.5t-69.5 -44t-66 -40h224zM4 1141 q70 31 121 62.5t100 78.5h129v-512h-174v307q-41 -23 -69.5 -35t-67.5 -22zM918 1268l-650 -1268h-205l650 1268h205z" />
<glyph unicode="&#xbe;" d="M61 911q23 -10 63 -20t81 -10q47 0 70.5 8t23.5 35q0 53 -121 53h-41v117h45q53 0 72.5 10t19.5 31q0 18 -15 26t-38 8q-35 0 -76 -12t-59 -22l-45 110q29 23 86 37t119 14q106 0 155.5 -42t49.5 -95q0 -39 -13.5 -65.5t-48.5 -49.5q86 -41 86 -129q0 -47 -19.5 -77.5 t-54 -50t-81 -27.5t-101.5 -8q-57 0 -109.5 9t-84.5 25zM940 512v-303h74v-129h-74v-80h-164v80h-254v92q47 88 93.5 166t111.5 174h213zM776 381q-33 -47 -58.5 -89t-45.5 -83h104v172zM954 1268l-649 -1268h-205l650 1268h204z" />
<glyph unicode="&#xbf;" d="M690 469q2 -10 2 -31q0 -82 -43 -156.5t-112 -131.5q-23 -18 -46.5 -37t-42 -37.5t-29.5 -40t-11 -45.5q0 -61 43 -93t108 -32q66 0 127.5 19.5t132.5 54.5l70 -193q-72 -45 -168 -69.5t-191 -24.5q-117 0 -192.5 30.5t-118.5 79t-60.5 104.5t-17.5 107q0 59 23.5 107.5 t59.5 88.5t77 76t77 70.5t59.5 71.5t23.5 82h229zM389 784q0 80 52.5 125t117.5 45q33 0 63.5 -11t55 -33.5t39 -54.5t14.5 -71t-14.5 -70.5t-39 -53t-55 -33t-63.5 -11.5t-63.5 11.5t-54 33t-38 53t-14.5 70.5z" />
<glyph unicode="&#xc0;" d="M735 0l-59 293h-338l-57 -293h-263q90 375 182.5 683t178.5 585h274q90 -279 179.5 -591t173.5 -677h-271zM510 1022q-20 -72 -37.5 -136.5t-33 -127t-29 -126t-25.5 -130.5h248q-12 68 -24.5 131t-28 125.5t-33 127t-37.5 136.5zM403 1700l324 -227l-92 -137l-357 172z " />
<glyph unicode="&#xc1;" d="M735 0l-59 293h-338l-57 -293h-263q90 375 182.5 683t178.5 585h274q90 -279 179.5 -591t173.5 -677h-271zM510 1022q-20 -72 -37.5 -136.5t-33 -127t-29 -126t-25.5 -130.5h248q-12 68 -24.5 131t-28 125.5t-33 127t-37.5 136.5zM735 1508l-357 -172l-92 137l324 227z " />
<glyph unicode="&#xc2;" d="M735 0l-59 293h-338l-57 -293h-263q90 375 182.5 683t178.5 585h274q90 -279 179.5 -591t173.5 -677h-271zM510 1022q-20 -72 -37.5 -136.5t-33 -127t-29 -126t-25.5 -130.5h248q-12 68 -24.5 131t-28 125.5t-33 127t-37.5 136.5zM799 1450l-101 -121l-182 142l-182 -142 l-105 121l287 250z" />
<glyph unicode="&#xc3;" d="M735 0l-59 293h-338l-57 -293h-263q90 375 182.5 683t178.5 585h274q90 -279 179.5 -591t173.5 -677h-271zM510 1022q-20 -72 -37.5 -136.5t-33 -127t-29 -126t-25.5 -130.5h248q-12 68 -24.5 131t-28 125.5t-33 127t-37.5 136.5zM846 1581q-10 -29 -29.5 -60.5 t-47.5 -60t-62.5 -47t-75.5 -18.5q-33 0 -60.5 10t-55.5 21.5t-55.5 22t-58.5 10.5q-35 0 -58 -24t-40 -54l-121 80q10 29 29.5 61.5t47.5 61t62.5 47t77.5 18.5q33 0 60.5 -10.5t55.5 -21.5t54.5 -21.5t57.5 -10.5q35 0 59.5 23t38.5 53z" />
<glyph unicode="&#xc4;" d="M735 0l-59 293h-338l-57 -293h-263q90 375 182.5 683t178.5 585h274q90 -279 179.5 -591t173.5 -677h-271zM510 1022q-20 -72 -37.5 -136.5t-33 -127t-29 -126t-25.5 -130.5h248q-12 68 -24.5 131t-28 125.5t-33 127t-37.5 136.5zM311 1387q-57 0 -99 36t-42 101 q0 66 42 102.5t99 36.5q55 0 98.5 -36.5t43.5 -102.5t-43.5 -101.5t-98.5 -35.5zM719 1387q-57 0 -99 36t-42 101q0 66 42 102.5t99 36.5t99 -36.5t42 -102.5t-42 -101.5t-99 -35.5z" />
<glyph unicode="&#xc5;" d="M727 1403q0 -53 -18.5 -92t-49.5 -68q88 -274 176.5 -580.5t170.5 -662.5h-271l-59 293h-338l-57 -293h-263q88 365 177.5 667t173.5 572q-33 27 -52.5 68t-19.5 96q0 51 17.5 91t47 66.5t68.5 40t80 13.5q88 0 152.5 -53.5t64.5 -157.5zM510 1022q-20 -72 -37.5 -136.5 t-33 -127t-29 -126t-25.5 -130.5h248q-12 68 -24.5 131t-28 125.5t-33 127t-37.5 136.5zM594 1403q0 43 -24.5 64.5t-59.5 21.5q-31 0 -56.5 -21.5t-25.5 -64.5t25.5 -64.5t56.5 -21.5q35 0 59.5 21.5t24.5 64.5z" />
<glyph unicode="&#xc6;" d="M522 293h-186l-55 -293h-263q53 217 98.5 382t90.5 308.5t92 279.5t107 298h573v-209h-227v-283h180v-209h-180v-358h254v-209h-484v293zM522 1098q-35 -141 -69.5 -283.5t-71.5 -312.5h141v596z" />
<glyph unicode="&#xc7;" d="M614 -49q68 -20 94.5 -60.5t26.5 -76.5q0 -47 -21.5 -78t-55 -49.5t-78.5 -26.5t-91 -8q-92 0 -163 22l26 129q12 -4 47 -11t68 -7q84 0 84 51q0 39 -74 64l-41 12q4 18 12.5 38.5t16.5 37.5q-199 43 -304.5 207.5t-105.5 439.5q0 158 43 280.5t120 207.5t182.5 129 t230.5 44q68 0 122 -11t95 -25.5t68.5 -31t41.5 -24.5l-65 -200q-47 31 -113.5 52t-152.5 21q-59 0 -115.5 -21.5t-100.5 -71.5t-72 -134t-28 -209q0 -217 75 -332.5t245 -115.5q98 0 162.5 22.5t103.5 44.5l64 -199q-51 -31 -138.5 -57.5t-199.5 -30.5z" />
<glyph unicode="&#xc8;" d="M129 0v1268h768v-209h-516v-285h448v-209h-448v-356h561v-209h-813zM403 1700l324 -227l-92 -137l-357 172z" />
<glyph unicode="&#xc9;" d="M129 0v1268h768v-209h-516v-285h448v-209h-448v-356h561v-209h-813zM735 1508l-357 -172l-92 137l324 227z" />
<glyph unicode="&#xca;" d="M129 0v1268h768v-209h-516v-285h448v-209h-448v-356h561v-209h-813zM799 1450l-101 -121l-182 142l-182 -142l-105 121l287 250z" />
<glyph unicode="&#xcb;" d="M129 0v1268h768v-209h-516v-285h448v-209h-448v-356h561v-209h-813zM311 1387q-57 0 -99 36t-42 101q0 66 42 102.5t99 36.5q55 0 98.5 -36.5t43.5 -102.5t-43.5 -101.5t-98.5 -35.5zM719 1387q-57 0 -99 36t-42 101q0 66 42 102.5t99 36.5t99 -36.5t42 -102.5 t-42 -101.5t-99 -35.5z" />
<glyph unicode="&#xcc;" d="M111 0v209h276v850h-276v209h804v-209h-274v-850h274v-209h-804zM403 1700l324 -227l-92 -137l-357 172z" />
<glyph unicode="&#xcd;" d="M111 0v209h276v850h-276v209h804v-209h-274v-850h274v-209h-804zM735 1508l-357 -172l-92 137l324 227z" />
<glyph unicode="&#xce;" d="M111 0v209h276v850h-276v209h804v-209h-274v-850h274v-209h-804zM799 1450l-101 -121l-182 142l-182 -142l-105 121l287 250z" />
<glyph unicode="&#xcf;" d="M111 0v209h276v850h-276v209h804v-209h-274v-850h274v-209h-804zM311 1387q-57 0 -99 36t-42 101q0 66 42 102.5t99 36.5q55 0 98.5 -36.5t43.5 -102.5t-43.5 -101.5t-98.5 -35.5zM719 1387q-57 0 -99 36t-42 101q0 66 42 102.5t99 36.5t99 -36.5t42 -102.5t-42 -101.5 t-99 -35.5z" />
<glyph unicode="&#xd0;" d="M969 635q0 -176 -42 -300t-117 -202t-177.5 -113.5t-224.5 -35.5q-66 0 -128.5 7t-134.5 23v539h-108v209h108v489q86 18 158 24.5t137 6.5q119 0 217.5 -37t167 -115.5t106.5 -200.5t38 -294zM399 762h156v-209h-156v-348q8 -2 17.5 -2h19.5q78 0 131.5 32.5t85 90 t46 136.5t14.5 173q0 82 -10.5 159.5t-38 137t-76.5 95.5t-125 36q-16 0 -32.5 -1t-31.5 -5v-295z" />
<glyph unicode="&#xd1;" d="M727 0q-86 211 -187.5 421t-217.5 421v-842h-228v1268h203q57 -90 114.5 -195.5t112 -210t100.5 -203t78 -172.5v781h228v-1268h-203zM846 1581q-10 -29 -29.5 -60.5t-47.5 -60t-62.5 -47t-75.5 -18.5q-33 0 -60.5 10t-55.5 21.5t-55.5 22t-58.5 10.5q-35 0 -58 -24 t-40 -54l-121 80q10 29 29.5 61.5t47.5 61t62.5 47t77.5 18.5q33 0 60.5 -10.5t55.5 -21.5t54.5 -21.5t57.5 -10.5q35 0 59.5 23t38.5 53z" />
<glyph unicode="&#xd2;" d="M311 635q0 -92 7.5 -173t29 -140.5t60 -94t104.5 -34.5q63 0 103 34.5t61.5 95t29 140.5t7.5 172t-7.5 173t-29 140.5t-60 94t-104.5 34.5t-104.5 -34.5t-60 -95t-29 -140.5t-7.5 -172zM55 635q0 328 121 494.5t336 166.5q223 0 340 -166.5t117 -494.5t-119 -495 t-336 -167q-223 0 -341 167t-118 495zM403 1700l324 -227l-92 -137l-357 172z" />
<glyph unicode="&#xd3;" d="M311 635q0 -92 7.5 -173t29 -140.5t60 -94t104.5 -34.5q63 0 103 34.5t61.5 95t29 140.5t7.5 172t-7.5 173t-29 140.5t-60 94t-104.5 34.5t-104.5 -34.5t-60 -95t-29 -140.5t-7.5 -172zM55 635q0 328 121 494.5t336 166.5q223 0 340 -166.5t117 -494.5t-119 -495 t-336 -167q-223 0 -341 167t-118 495zM735 1508l-357 -172l-92 137l324 227z" />
<glyph unicode="&#xd4;" d="M311 635q0 -92 7.5 -173t29 -140.5t60 -94t104.5 -34.5q63 0 103 34.5t61.5 95t29 140.5t7.5 172t-7.5 173t-29 140.5t-60 94t-104.5 34.5t-104.5 -34.5t-60 -95t-29 -140.5t-7.5 -172zM55 635q0 328 121 494.5t336 166.5q223 0 340 -166.5t117 -494.5t-119 -495 t-336 -167q-223 0 -341 167t-118 495zM799 1450l-101 -121l-182 142l-182 -142l-105 121l287 250z" />
<glyph unicode="&#xd5;" d="M311 635q0 -92 7.5 -173t29 -140.5t60 -94t104.5 -34.5q63 0 103 34.5t61.5 95t29 140.5t7.5 172t-7.5 173t-29 140.5t-60 94t-104.5 34.5t-104.5 -34.5t-60 -95t-29 -140.5t-7.5 -172zM55 635q0 328 121 494.5t336 166.5q223 0 340 -166.5t117 -494.5t-119 -495 t-336 -167q-223 0 -341 167t-118 495zM846 1581q-10 -29 -29.5 -60.5t-47.5 -60t-62.5 -47t-75.5 -18.5q-33 0 -60.5 10t-55.5 21.5t-55.5 22t-58.5 10.5q-35 0 -58 -24t-40 -54l-121 80q10 29 29.5 61.5t47.5 61t62.5 47t77.5 18.5q33 0 60.5 -10.5t55.5 -21.5t54.5 -21.5 t57.5 -10.5q35 0 59.5 23t38.5 53z" />
<glyph unicode="&#xd6;" d="M311 635q0 -92 7.5 -173t29 -140.5t60 -94t104.5 -34.5q63 0 103 34.5t61.5 95t29 140.5t7.5 172t-7.5 173t-29 140.5t-60 94t-104.5 34.5t-104.5 -34.5t-60 -95t-29 -140.5t-7.5 -172zM55 635q0 328 121 494.5t336 166.5q223 0 340 -166.5t117 -494.5t-119 -495 t-336 -167q-223 0 -341 167t-118 495zM311 1387q-57 0 -99 36t-42 101q0 66 42 102.5t99 36.5q55 0 98.5 -36.5t43.5 -102.5t-43.5 -101.5t-98.5 -35.5zM719 1387q-57 0 -99 36t-42 101q0 66 42 102.5t99 36.5t99 -36.5t42 -102.5t-42 -101.5t-99 -35.5z" />
<glyph unicode="&#xd7;" d="M776 940l144 -145l-256 -254l258 -256l-146 -142l-256 258l-256 -258l-141 140l256 256l-256 256l141 147l256 -256z" />
<glyph unicode="&#xd8;" d="M55 631q0 328 121 494.5t336 166.5q113 0 193 -39l47 97l163 -82l-69 -138q123 -170 123 -499q0 -328 -119 -495t-336 -167q-117 0 -207 47l-47 -98l-162 82l70 145q-113 169 -113 486zM713 631q0 53 -3 103t-8 95l-296 -606q45 -35 106 -35q63 0 103 35t61.5 95.5 t29 140.5t7.5 172zM311 631q0 -98 6 -178l289 594q-39 27 -94 26q-66 0 -104.5 -34.5t-60 -95t-29 -140.5t-7.5 -172z" />
<glyph unicode="&#xd9;" d="M508 -27q-123 0 -206 34t-132 97.5t-69.5 153.5t-20.5 201v809h254v-793q0 -80 8 -134t27.5 -87t54.5 -47t88 -14t88 14t55.5 48t28.5 88t8 134v791h252v-809q0 -111 -20.5 -201t-71.5 -153.5t-135 -97.5t-209 -34zM385 1700l324 -227l-92 -137l-357 172z" />
<glyph unicode="&#xda;" d="M508 -27q-123 0 -206 34t-132 97.5t-69.5 153.5t-20.5 201v809h254v-793q0 -80 8 -134t27.5 -87t54.5 -47t88 -14t88 14t55.5 48t28.5 88t8 134v791h252v-809q0 -111 -20.5 -201t-71.5 -153.5t-135 -97.5t-209 -34zM768 1508l-357 -172l-92 137l324 227z" />
<glyph unicode="&#xdb;" d="M508 -27q-123 0 -206 34t-132 97.5t-69.5 153.5t-20.5 201v809h254v-793q0 -80 8 -134t27.5 -87t54.5 -47t88 -14t88 14t55.5 48t28.5 88t8 134v791h252v-809q0 -111 -20.5 -201t-71.5 -153.5t-135 -97.5t-209 -34zM799 1450l-101 -121l-182 142l-182 -142l-105 121 l287 250z" />
<glyph unicode="&#xdc;" d="M508 -27q-123 0 -206 34t-132 97.5t-69.5 153.5t-20.5 201v809h254v-793q0 -80 8 -134t27.5 -87t54.5 -47t88 -14t88 14t55.5 48t28.5 88t8 134v791h252v-809q0 -111 -20.5 -201t-71.5 -153.5t-135 -97.5t-209 -34zM311 1387q-57 0 -99 36t-42 101q0 66 42 102.5t99 36.5 q55 0 98.5 -36.5t43.5 -102.5t-43.5 -101.5t-98.5 -35.5zM719 1387q-57 0 -99 36t-42 101q0 66 42 102.5t99 36.5t99 -36.5t42 -102.5t-42 -101.5t-99 -35.5z" />
<glyph unicode="&#xdd;" d="M520 688q23 47 52.5 119t59.5 151.5t57.5 161.5t49.5 148h260q-39 -104 -77.5 -202.5t-81.5 -195t-92.5 -191.5t-106.5 -196v-483h-254v481q-113 199 -198 388.5t-162 398.5h270q47 -147 104.5 -300t118.5 -280zM768 1508l-357 -172l-92 137l324 227z" />
<glyph unicode="&#xde;" d="M459 1087q244 0 376 -104t132 -319q0 -213 -133.5 -322t-380.5 -109h-91v-233h-251v1268h251v-183q27 2 50.5 2h46.5zM487 868q-23 0 -62.5 -1t-62.5 -5v-409h103q121 0 182.5 55t61.5 158q0 98 -61 150t-161 52z" />
<glyph unicode="&#xdf;" d="M836 1116q0 -88 -21.5 -138t-46.5 -86t-46.5 -71t-21.5 -94q0 -43 22.5 -72.5t57.5 -55.5t74 -50.5t74 -56t57.5 -77.5t22.5 -112q0 -158 -79 -242t-272 -84q-96 0 -152 17.5t-91 34.5l45 209q35 -16 87 -32t95 -16q55 0 83 30t28 79t-44 86t-114 72q-92 49 -116.5 109.5 t-24.5 125.5q0 72 22.5 117t49 83t49 81t22.5 112q0 59 -33 89t-92 30q-78 0 -117 -59.5t-39 -163.5v-981h-252v975q0 96 23 178t72 141.5t124.5 92t182.5 32.5q102 0 173 -24.5t115 -66.5t63.5 -96.5t19.5 -115.5z" />
<glyph unicode="&#xe0;" d="M514 180q41 0 80 1t68 5v222q-25 4 -60 7t-63 3q-39 0 -76 -5t-64.5 -17.5t-44 -35t-16.5 -59.5q0 -66 49 -93.5t127 -27.5zM492 987q119 0 197.5 -27.5t125.5 -78t67.5 -123t20.5 -162.5v-573q-55 -12 -163.5 -29t-243.5 -17q-92 0 -167 16.5t-128.5 54.5t-82 98.5 t-28.5 148.5q0 84 33 141.5t88 92t127 50t149 15.5q98 0 175 -16v30q0 72 -45.5 120t-155.5 48q-72 0 -138.5 -10t-107.5 -25l-35 203q47 16 133.5 29.5t178.5 13.5zM401 1415l324 -227l-92 -137l-357 172z" />
<glyph unicode="&#xe1;" d="M514 180q41 0 80 1t68 5v222q-25 4 -60 7t-63 3q-39 0 -76 -5t-64.5 -17.5t-44 -35t-16.5 -59.5q0 -66 49 -93.5t127 -27.5zM492 987q119 0 197.5 -27.5t125.5 -78t67.5 -123t20.5 -162.5v-573q-55 -12 -163.5 -29t-243.5 -17q-92 0 -167 16.5t-128.5 54.5t-82 98.5 t-28.5 148.5q0 84 33 141.5t88 92t127 50t149 15.5q98 0 175 -16v30q0 72 -45.5 120t-155.5 48q-72 0 -138.5 -10t-107.5 -25l-35 203q47 16 133.5 29.5t178.5 13.5zM760 1223l-357 -172l-92 137l324 227z" />
<glyph unicode="&#xe2;" d="M514 180q41 0 80 1t68 5v222q-25 4 -60 7t-63 3q-39 0 -76 -5t-64.5 -17.5t-44 -35t-16.5 -59.5q0 -66 49 -93.5t127 -27.5zM492 987q119 0 197.5 -27.5t125.5 -78t67.5 -123t20.5 -162.5v-573q-55 -12 -163.5 -29t-243.5 -17q-92 0 -167 16.5t-128.5 54.5t-82 98.5 t-28.5 148.5q0 84 33 141.5t88 92t127 50t149 15.5q98 0 175 -16v30q0 72 -45.5 120t-155.5 48q-72 0 -138.5 -10t-107.5 -25l-35 203q47 16 133.5 29.5t178.5 13.5zM799 1165l-101 -121l-182 142l-182 -142l-105 121l287 250z" />
<glyph unicode="&#xe3;" d="M514 180q41 0 80 1t68 5v222q-25 4 -60 7t-63 3q-39 0 -76 -5t-64.5 -17.5t-44 -35t-16.5 -59.5q0 -66 49 -93.5t127 -27.5zM492 987q119 0 197.5 -27.5t125.5 -78t67.5 -123t20.5 -162.5v-573q-55 -12 -163.5 -29t-243.5 -17q-92 0 -167 16.5t-128.5 54.5t-82 98.5 t-28.5 148.5q0 84 33 141.5t88 92t127 50t149 15.5q98 0 175 -16v30q0 72 -45.5 120t-155.5 48q-72 0 -138.5 -10t-107.5 -25l-35 203q47 16 133.5 29.5t178.5 13.5zM848 1296q-10 -29 -29.5 -60.5t-47.5 -60t-62.5 -47t-75.5 -18.5q-33 0 -60.5 10t-55.5 21.5t-55.5 22 t-58.5 10.5q-35 0 -58 -24t-40 -54l-121 80q10 29 29.5 61.5t47.5 61t62.5 47t77.5 18.5q33 0 60.5 -10.5t55.5 -21.5t54.5 -21.5t57.5 -10.5q35 0 59.5 23t38.5 53z" />
<glyph unicode="&#xe4;" d="M514 180q41 0 80 1t68 5v222q-25 4 -60 7t-63 3q-39 0 -76 -5t-64.5 -17.5t-44 -35t-16.5 -59.5q0 -66 49 -93.5t127 -27.5zM492 987q119 0 197.5 -27.5t125.5 -78t67.5 -123t20.5 -162.5v-573q-55 -12 -163.5 -29t-243.5 -17q-92 0 -167 16.5t-128.5 54.5t-82 98.5 t-28.5 148.5q0 84 33 141.5t88 92t127 50t149 15.5q98 0 175 -16v30q0 72 -45.5 120t-155.5 48q-72 0 -138.5 -10t-107.5 -25l-35 203q47 16 133.5 29.5t178.5 13.5zM311 1102q-57 0 -99 36t-42 101q0 66 42 102.5t99 36.5q55 0 98.5 -36.5t43.5 -102.5t-43.5 -101.5 t-98.5 -35.5zM719 1102q-57 0 -99 36t-42 101q0 66 42 102.5t99 36.5t99 -36.5t42 -102.5t-42 -101.5t-99 -35.5z" />
<glyph unicode="&#xe5;" d="M514 180q41 0 80 1t68 5v222q-25 4 -60 7t-63 3q-39 0 -76 -5t-64.5 -17.5t-44 -35t-16.5 -59.5q0 -66 49 -93.5t127 -27.5zM492 987q119 0 197.5 -27.5t125.5 -78t67.5 -123t20.5 -162.5v-573q-55 -12 -163.5 -29t-243.5 -17q-92 0 -167 16.5t-128.5 54.5t-82 98.5 t-28.5 148.5q0 84 33 141.5t88 92t127 50t149 15.5q98 0 175 -16v30q0 72 -45.5 120t-155.5 48q-72 0 -138.5 -10t-107.5 -25l-35 203q47 16 133.5 29.5t178.5 13.5zM727 1237q0 -102 -64.5 -155.5t-152.5 -53.5q-41 0 -80 13.5t-68.5 40t-47 65.5t-17.5 90t17.5 91t47 66.5 t68.5 40t80 13.5q88 0 152.5 -53.5t64.5 -157.5zM594 1237q0 43 -24.5 64.5t-59.5 21.5q-31 0 -56.5 -21.5t-25.5 -64.5q0 -41 25.5 -63.5t56.5 -22.5q35 0 59.5 22.5t24.5 63.5z" />
<glyph unicode="&#xe6;" d="M334 987q63 0 119.5 -25.5t99.5 -84.5q35 53 78 81.5t94 28.5q59 0 109.5 -24.5t87 -80t57 -145.5t20.5 -221v-60.5t-4 -56.5h-366q2 -57 16 -97t37 -65.5t51.5 -37t61.5 -11.5q37 0 72.5 9.5t64.5 25.5l37 -198q-47 -25 -93.5 -36.5t-107.5 -11.5q-72 0 -123 29t-86 72 q-47 -53 -107.5 -77t-119.5 -24q-70 0 -123 28t-89 73t-54.5 102.5t-18.5 116.5q0 139 79 218t202 79q27 0 53.5 -3t54.5 -13v47q0 90 -31.5 124.5t-87.5 34.5q-35 0 -74.5 -11t-86.5 -28l-35 195q53 23 106.5 35t106.5 12zM436 408q-18 6 -37.5 8t-36.5 2 q-53 0 -86.5 -26.5t-33.5 -92.5q0 -55 28.5 -88t83.5 -33q47 0 101 25q-12 53 -15.5 106.5t-3.5 98.5zM725 786q-27 0 -44 -19t-28.5 -50t-16.5 -69t-5 -75h180q0 39 -4 78t-13.5 69t-25.5 48t-43 18z" />
<glyph unicode="&#xe7;" d="M90 481q0 104 33 196.5t100.5 161t171 108.5t246.5 40q86 0 155.5 -12t141.5 -41l-55 -203q-41 14 -91.5 25.5t-127.5 11.5q-90 0 -150.5 -21.5t-97.5 -59.5t-53.5 -91t-16.5 -115q0 -133 75 -208.5t255 -75.5q59 0 123.5 8t118.5 26l36 -206q-53 -20 -128.5 -34 t-178.5 -14h-22l-11 -26q68 -20 94.5 -60.5t26.5 -76.5q0 -47 -21.5 -78t-55 -49.5t-78.5 -26.5t-91 -8q-92 0 -163 22l26 129q12 -4 47 -11t68 -7q84 0 84 51q0 39 -74 64l-41 12q12 43 33 84q-100 20 -172 65t-118 108.5t-67.5 142.5t-21.5 169z" />
<glyph unicode="&#xe8;" d="M63 473q0 127 39 223.5t102.5 161t145.5 97t168 32.5q213 0 323.5 -126t110.5 -367q0 -25 -1 -51.5t-3 -43.5h-624q0 -94 77.5 -148t200.5 -54q76 0 144.5 16t115.5 33l35 -215q-66 -23 -139.5 -38.5t-165.5 -15.5q-123 0 -220.5 32t-166 94.5t-105.5 154.5t-37 215z M709 573q0 39 -10.5 75t-33 64.5t-57.5 46t-86 17.5q-49 0 -85 -16.5t-59.5 -45t-36.5 -65.5t-17 -76h385zM401 1415l324 -227l-92 -137l-357 172z" />
<glyph unicode="&#xe9;" d="M63 473q0 127 39 223.5t102.5 161t145.5 97t168 32.5q213 0 323.5 -126t110.5 -367q0 -25 -1 -51.5t-3 -43.5h-624q0 -94 77.5 -148t200.5 -54q76 0 144.5 16t115.5 33l35 -215q-66 -23 -139.5 -38.5t-165.5 -15.5q-123 0 -220.5 32t-166 94.5t-105.5 154.5t-37 215z M709 573q0 39 -10.5 75t-33 64.5t-57.5 46t-86 17.5q-49 0 -85 -16.5t-59.5 -45t-36.5 -65.5t-17 -76h385zM778 1223l-357 -172l-92 137l324 227z" />
<glyph unicode="&#xea;" d="M63 473q0 127 39 223.5t102.5 161t145.5 97t168 32.5q213 0 323.5 -126t110.5 -367q0 -25 -1 -51.5t-3 -43.5h-624q0 -94 77.5 -148t200.5 -54q76 0 144.5 16t115.5 33l35 -215q-66 -23 -139.5 -38.5t-165.5 -15.5q-123 0 -220.5 32t-166 94.5t-105.5 154.5t-37 215z M709 573q0 39 -10.5 75t-33 64.5t-57.5 46t-86 17.5q-49 0 -85 -16.5t-59.5 -45t-36.5 -65.5t-17 -76h385zM807 1165l-101 -121l-182 142l-182 -142l-105 121l287 250z" />
<glyph unicode="&#xeb;" d="M63 473q0 127 39 223.5t102.5 161t145.5 97t168 32.5q213 0 323.5 -126t110.5 -367q0 -25 -1 -51.5t-3 -43.5h-624q0 -94 77.5 -148t200.5 -54q76 0 144.5 16t115.5 33l35 -215q-66 -23 -139.5 -38.5t-165.5 -15.5q-123 0 -220.5 32t-166 94.5t-105.5 154.5t-37 215z M709 573q0 39 -10.5 75t-33 64.5t-57.5 46t-86 17.5q-49 0 -85 -16.5t-59.5 -45t-36.5 -65.5t-17 -76h385zM311 1102q-57 0 -99 36t-42 101q0 66 42 102.5t99 36.5q55 0 98.5 -36.5t43.5 -102.5t-43.5 -101.5t-98.5 -35.5zM719 1102q-57 0 -99 36t-42 101q0 66 42 102.5 t99 36.5t99 -36.5t42 -102.5t-42 -101.5t-99 -35.5z" />
<glyph unicode="&#xec;" d="M956 41q-78 -37 -146.5 -50.5t-125.5 -13.5q-98 0 -164.5 29t-106.5 83t-56.5 132t-16.5 178v355h-266v209h518v-596q0 -86 31.5 -128t105.5 -42q35 0 84 9t111 38zM364 1415l324 -227l-92 -137l-357 172z" />
<glyph unicode="&#xed;" d="M956 41q-78 -37 -146.5 -50.5t-125.5 -13.5q-98 0 -164.5 29t-106.5 83t-56.5 132t-16.5 178v355h-266v209h518v-596q0 -86 31.5 -128t105.5 -42q35 0 84 9t111 38zM735 1223l-357 -172l-92 137l324 227z" />
<glyph unicode="&#xee;" d="M956 41q-78 -37 -146.5 -50.5t-125.5 -13.5q-98 0 -164.5 29t-106.5 83t-56.5 132t-16.5 178v355h-266v209h518v-596q0 -86 31.5 -128t105.5 -42q35 0 84 9t111 38zM764 1165l-101 -121l-182 142l-182 -142l-105 121l287 250z" />
<glyph unicode="&#xef;" d="M956 41q-78 -37 -146.5 -50.5t-125.5 -13.5q-98 0 -164.5 29t-106.5 83t-56.5 132t-16.5 178v355h-266v209h518v-596q0 -86 31.5 -128t105.5 -42q35 0 84 9t111 38zM276 1102q-57 0 -99 36t-42 101q0 66 42 102.5t99 36.5q55 0 98.5 -36.5t43.5 -102.5t-43.5 -101.5 t-98.5 -35.5zM684 1102q-57 0 -99 36t-42 101q0 66 42 102.5t99 36.5t99 -36.5t42 -102.5t-42 -101.5t-99 -35.5z" />
<glyph unicode="&#xf0;" d="M801 1096q66 -123 98.5 -259.5t32.5 -271.5q0 -119 -21.5 -226.5t-70.5 -188t-131 -129t-205 -48.5q-106 0 -185 36t-131.5 97.5t-79 144.5t-26.5 177q0 88 25.5 167t75.5 138.5t127 94t182 34.5q41 0 86 -14t79 -33q-10 47 -30.5 98.5t-53.5 104.5l-188 -64l-53 154 l139 47q-29 33 -61.5 60.5t-69.5 54.5l152 157q125 -74 217 -190l223 74l51 -154zM670 602q-49 43 -93.5 51.5t-66.5 8.5q-86 0 -128 -61.5t-42 -172.5q0 -45 10 -87t29.5 -75t48.5 -53t66 -20q98 0 138 97t40 257q0 14 -1 27.5t-1 27.5z" />
<glyph unicode="&#xf1;" d="M129 932q68 18 167 34.5t216 16.5q115 0 190.5 -31.5t119.5 -90t62.5 -139.5t18.5 -179v-543h-252v510q0 135 -30.5 194.5t-124.5 59.5q-29 0 -56.5 -2t-58.5 -6v-756h-252v932zM848 1296q-10 -29 -29.5 -60.5t-47.5 -60t-62.5 -47t-75.5 -18.5q-33 0 -60.5 10 t-55.5 21.5t-55.5 22t-58.5 10.5q-35 0 -58 -24t-40 -54l-121 80q10 29 29.5 61.5t47.5 61t62.5 47t77.5 18.5q33 0 60.5 -10.5t55.5 -21.5t54.5 -21.5t57.5 -10.5q35 0 59.5 23t38.5 53z" />
<glyph unicode="&#xf2;" d="M967 483q0 -115 -33 -208t-92.5 -160.5t-142.5 -104.5t-185 -37t-185 37t-143.5 104.5t-93.5 161t-33 207.5q0 113 34 206t94.5 159.5t144.5 102.5t182 36q100 0 183 -36t143.5 -102.5t93.5 -159.5t33 -206zM315 481q0 -129 46.5 -208.5t148.5 -79.5q98 0 148.5 79.5 t50.5 208.5t-46.5 208t-148.5 79q-98 0 -148.5 -79t-50.5 -208zM401 1415l324 -227l-92 -137l-357 172z" />
<glyph unicode="&#xf3;" d="M967 483q0 -115 -33 -208t-92.5 -160.5t-142.5 -104.5t-185 -37t-185 37t-143.5 104.5t-93.5 161t-33 207.5q0 113 34 206t94.5 159.5t144.5 102.5t182 36q100 0 183 -36t143.5 -102.5t93.5 -159.5t33 -206zM315 481q0 -129 46.5 -208.5t148.5 -79.5q98 0 148.5 79.5 t50.5 208.5t-46.5 208t-148.5 79q-98 0 -148.5 -79t-50.5 -208zM744 1223l-357 -172l-92 137l324 227z" />
<glyph unicode="&#xf4;" d="M967 483q0 -115 -33 -208t-92.5 -160.5t-142.5 -104.5t-185 -37t-185 37t-143.5 104.5t-93.5 161t-33 207.5q0 113 34 206t94.5 159.5t144.5 102.5t182 36q100 0 183 -36t143.5 -102.5t93.5 -159.5t33 -206zM315 481q0 -129 46.5 -208.5t148.5 -79.5q98 0 148.5 79.5 t50.5 208.5t-46.5 208t-148.5 79q-98 0 -148.5 -79t-50.5 -208zM799 1165l-101 -121l-182 142l-182 -142l-105 121l287 250z" />
<glyph unicode="&#xf5;" d="M967 483q0 -115 -33 -208t-92.5 -160.5t-142.5 -104.5t-185 -37t-185 37t-143.5 104.5t-93.5 161t-33 207.5q0 113 34 206t94.5 159.5t144.5 102.5t182 36q100 0 183 -36t143.5 -102.5t93.5 -159.5t33 -206zM315 481q0 -129 46.5 -208.5t148.5 -79.5q98 0 148.5 79.5 t50.5 208.5t-46.5 208t-148.5 79q-98 0 -148.5 -79t-50.5 -208zM848 1296q-10 -29 -29.5 -60.5t-47.5 -60t-62.5 -47t-75.5 -18.5q-33 0 -60.5 10t-55.5 21.5t-55.5 22t-58.5 10.5q-35 0 -58 -24t-40 -54l-121 80q10 29 29.5 61.5t47.5 61t62.5 47t77.5 18.5 q33 0 60.5 -10.5t55.5 -21.5t54.5 -21.5t57.5 -10.5q35 0 59.5 23t38.5 53z" />
<glyph unicode="&#xf6;" d="M967 483q0 -115 -33 -208t-92.5 -160.5t-142.5 -104.5t-185 -37t-185 37t-143.5 104.5t-93.5 161t-33 207.5q0 113 34 206t94.5 159.5t144.5 102.5t182 36q100 0 183 -36t143.5 -102.5t93.5 -159.5t33 -206zM315 481q0 -129 46.5 -208.5t148.5 -79.5q98 0 148.5 79.5 t50.5 208.5t-46.5 208t-148.5 79q-98 0 -148.5 -79t-50.5 -208zM311 1102q-57 0 -99 36t-42 101q0 66 42 102.5t99 36.5q55 0 98.5 -36.5t43.5 -102.5t-43.5 -101.5t-98.5 -35.5zM719 1102q-57 0 -99 36t-42 101q0 66 42 102.5t99 36.5t99 -36.5t42 -102.5t-42 -101.5 t-99 -35.5z" />
<glyph unicode="&#xf7;" d="M657 909q0 -74 -43 -111.5t-98 -37.5q-59 0 -102 38t-43 111q0 74 43 113t102 39q55 0 98 -39t43 -113zM657 162q0 -72 -43 -112t-98 -40q-59 0 -102 40t-43 112q0 74 43 113.5t102 39.5q55 0 98 -39.5t43 -113.5zM82 641h860v-207h-860v207z" />
<glyph unicode="&#xf8;" d="M967 479q0 -115 -33 -208t-92.5 -160.5t-142.5 -104.5t-185 -37q-66 0 -123 15.5t-108 42.5l-78 -105l-127 96l84 117q-49 66 -76 153t-27 191q0 113 34 206t94.5 159.5t144.5 102.5t182 36q127 0 229 -59l76 104l129 -96l-86 -117q49 -66 77 -150t28 -186zM315 477 q0 -33 2 -62.5t9 -58.5l280 385q-39 23 -92 23q-98 0 -148.5 -79t-50.5 -208zM709 477q0 33 -2 60.5t-9 54.5l-280 -379q39 -25 92 -25q98 0 148.5 80t50.5 209z" />
<glyph unicode="&#xf9;" d="M897 33q-70 -18 -169 -37t-216 -19q-119 0 -194.5 33t-119.5 93.5t-60.5 142.5t-16.5 180v537h252v-504q0 -133 31.5 -197.5t123.5 -64.5q57 0 115 10v756h254v-930zM401 1415l324 -227l-92 -137l-357 172z" />
<glyph unicode="&#xfa;" d="M897 33q-70 -18 -169 -37t-216 -19q-119 0 -194.5 33t-119.5 93.5t-60.5 142.5t-16.5 180v537h252v-504q0 -133 31.5 -197.5t123.5 -64.5q57 0 115 10v756h254v-930zM735 1223l-357 -172l-92 137l324 227z" />
<glyph unicode="&#xfb;" d="M897 33q-70 -18 -169 -37t-216 -19q-119 0 -194.5 33t-119.5 93.5t-60.5 142.5t-16.5 180v537h252v-504q0 -133 31.5 -197.5t123.5 -64.5q57 0 115 10v756h254v-930zM799 1165l-101 -121l-182 142l-182 -142l-105 121l287 250z" />
<glyph unicode="&#xfc;" d="M897 33q-70 -18 -169 -37t-216 -19q-119 0 -194.5 33t-119.5 93.5t-60.5 142.5t-16.5 180v537h252v-504q0 -133 31.5 -197.5t123.5 -64.5q57 0 115 10v756h254v-930zM311 1102q-57 0 -99 36t-42 101q0 66 42 102.5t99 36.5q55 0 98.5 -36.5t43.5 -102.5t-43.5 -101.5 t-98.5 -35.5zM719 1102q-57 0 -99 36t-42 101q0 66 42 102.5t99 36.5t99 -36.5t42 -102.5t-42 -101.5t-99 -35.5z" />
<glyph unicode="&#xfd;" d="M967 963q-39 -135 -75 -265.5t-75 -254.5t-83 -242.5t-95 -231.5q-39 -82 -77 -141t-84 -97t-102.5 -56.5t-131.5 -18.5q-63 0 -115.5 10t-87.5 27l47 211q41 -18 73 -25.5t68 -7.5q74 0 119 49t72 117q-90 180 -180 412.5t-164 513.5h262q18 -76 41.5 -162t50.5 -172 t56.5 -169t60.5 -155q20 72 42.5 155t43 168t40 171t36.5 164h258zM735 1223l-357 -172l-92 137l324 227z" />
<glyph unicode="&#xfe;" d="M961 481q0 -111 -25 -204t-72 -159.5t-118.5 -103.5t-165.5 -37q-96 0 -199 48v-363h-252v1716l252 43v-454q29 6 59.5 11t59.5 5q223 0 342 -135.5t119 -366.5zM705 473q0 129 -51.5 212t-155.5 83q-29 0 -62 -3l-55 -5v-529q25 -16 65.5 -26t81.5 -10q90 0 133.5 72.5 t43.5 205.5z" />
<glyph unicode="&#xff;" d="M967 963q-39 -135 -75 -265.5t-75 -254.5t-83 -242.5t-95 -231.5q-39 -82 -77 -141t-84 -97t-102.5 -56.5t-131.5 -18.5q-63 0 -115.5 10t-87.5 27l47 211q41 -18 73 -25.5t68 -7.5q74 0 119 49t72 117q-90 180 -180 412.5t-164 513.5h262q18 -76 41.5 -162t50.5 -172 t56.5 -169t60.5 -155q20 72 42.5 155t43 168t40 171t36.5 164h258zM311 1102q-57 0 -99 36t-42 101q0 66 42 102.5t99 36.5q55 0 98.5 -36.5t43.5 -102.5t-43.5 -101.5t-98.5 -35.5zM719 1102q-57 0 -99 36t-42 101q0 66 42 102.5t99 36.5t99 -36.5t42 -102.5t-42 -101.5 t-99 -35.5z" />
<glyph unicode="&#x131;" d="M956 41q-78 -37 -146.5 -50.5t-125.5 -13.5q-98 0 -164.5 29t-106.5 83t-56.5 132t-16.5 178v355h-266v209h518v-596q0 -86 31.5 -128t105.5 -42q35 0 84 9t111 38z" />
<glyph unicode="&#x152;" d="M563 0q-25 -6 -50.5 -8t-53.5 -2q-207 0 -314.5 152.5t-107.5 492.5q0 338 109.5 491.5t310.5 153.5q31 0 59.5 -4t56.5 -8h406v-209h-227v-283h180v-209h-180v-358h254v-209h-443zM457 209q35 0 65 10v832q-31 10 -65 10q-57 0 -93 -30t-55.5 -85t-27 -134t-7.5 -177 t6.5 -177t27 -134.5t55.5 -85t94 -29.5z" />
<glyph unicode="&#x153;" d="M45 483q0 258 79 381t214 123q57 0 111.5 -33.5t89.5 -99.5q39 63 86 98t100 35q59 0 109.5 -24.5t87 -80t57 -145.5t20.5 -221q0 -25 -1 -62.5t-3 -54.5h-366q2 -57 16 -97t37 -65.5t51.5 -37t61.5 -11.5q37 0 72.5 9.5t64.5 25.5l37 -198q-47 -25 -93.5 -36.5 t-107.5 -11.5q-84 0 -139.5 38t-89.5 91q-31 -53 -80 -91t-121 -38q-150 0 -221.5 129t-71.5 377zM238 483q0 -164 29.5 -229.5t70.5 -65.5t69.5 64.5t28.5 230.5q0 164 -29.5 229.5t-70.5 65.5t-69.5 -64.5t-28.5 -230.5zM725 786q-27 0 -44 -19t-28.5 -50t-16.5 -69 t-5 -75h180q0 39 -4 78t-13.5 69t-25.5 48t-43 18z" />
<glyph unicode="&#x178;" d="M520 688q23 47 52.5 119t59.5 151.5t57.5 161.5t49.5 148h260q-39 -104 -77.5 -202.5t-81.5 -195t-92.5 -191.5t-106.5 -196v-483h-254v481q-113 199 -198 388.5t-162 398.5h270q47 -147 104.5 -300t118.5 -280zM311 1387q-57 0 -99 36t-42 101q0 66 42 102.5t99 36.5 q55 0 98.5 -36.5t43.5 -102.5t-43.5 -101.5t-98.5 -35.5zM719 1387q-57 0 -99 36t-42 101q0 66 42 102.5t99 36.5t99 -36.5t42 -102.5t-42 -101.5t-99 -35.5z" />
<glyph unicode="&#x2c6;" d="M799 1165l-101 -121l-182 142l-182 -142l-105 121l287 250z" />
<glyph unicode="&#x2da;" d="M727 1237q0 -102 -64.5 -155.5t-152.5 -53.5q-41 0 -80 13.5t-68.5 40t-47 65.5t-17.5 90t17.5 91t47 66.5t68.5 40t80 13.5q88 0 152.5 -53.5t64.5 -157.5zM594 1237q0 43 -24.5 64.5t-59.5 21.5q-31 0 -56.5 -21.5t-25.5 -64.5q0 -41 25.5 -63.5t56.5 -22.5 q35 0 59.5 22.5t24.5 63.5z" />
<glyph unicode="&#x2dc;" d="M848 1296q-10 -29 -29.5 -60.5t-47.5 -60t-62.5 -47t-75.5 -18.5q-33 0 -60.5 10t-55.5 21.5t-55.5 22t-58.5 10.5q-35 0 -58 -24t-40 -54l-121 80q10 29 29.5 61.5t47.5 61t62.5 47t77.5 18.5q33 0 60.5 -10.5t55.5 -21.5t54.5 -21.5t57.5 -10.5q35 0 59.5 23t38.5 53z " />
<glyph unicode="&#x2000;" horiz-adv-x="850" />
<glyph unicode="&#x2001;" horiz-adv-x="1700" />
<glyph unicode="&#x2002;" horiz-adv-x="850" />
<glyph unicode="&#x2003;" horiz-adv-x="1700" />
<glyph unicode="&#x2004;" horiz-adv-x="566" />
<glyph unicode="&#x2005;" horiz-adv-x="425" />
<glyph unicode="&#x2006;" horiz-adv-x="283" />
<glyph unicode="&#x2007;" horiz-adv-x="283" />
<glyph unicode="&#x2008;" horiz-adv-x="212" />
<glyph unicode="&#x2009;" horiz-adv-x="340" />
<glyph unicode="&#x200a;" horiz-adv-x="94" />
<glyph unicode="&#x2010;" d="M231 649h562v-248h-562v248z" />
<glyph unicode="&#x2011;" d="M231 649h562v-248h-562v248z" />
<glyph unicode="&#x2012;" d="M231 649h562v-248h-562v248z" />
<glyph unicode="&#x2013;" d="M111 641h804v-188h-804v188z" />
<glyph unicode="&#x2014;" d="M0 641h1024v-188h-1024v188z" />
<glyph unicode="&#x2018;" d="M748 1309q-37 -6 -74 -13.5t-71 -19.5t-61.5 -34.5t-43.5 -61.5q78 -6 121 -60.5t43 -120.5q0 -80 -52.5 -131t-132.5 -51q-86 0 -134 57.5t-48 155.5q0 70 22.5 142.5t72.5 134t130 106.5t195 60z" />
<glyph unicode="&#x2019;" d="M295 1014q37 8 75 14t71.5 18.5t60 35t43.5 61.5q-78 8 -121 61t-43 119q0 80 52 131t132 51q86 0 134.5 -57t48.5 -156q0 -72 -23 -143.5t-73 -133t-130 -106.5t-194 -59z" />
<glyph unicode="&#x201a;" d="M258 -150q37 8 75 14.5t71.5 19t60.5 35t43 61.5q-78 8 -121 61t-43 119q0 80 52.5 131t131.5 51q86 0 134.5 -57.5t48.5 -155.5q0 -72 -22.5 -143.5t-73 -133t-130 -106.5t-194.5 -59z" />
<glyph unicode="&#x201c;" d="M983 1274q-39 -8 -76 -16.5t-69.5 -21.5t-58 -36.5t-40.5 -62.5q68 -4 101.5 -48.5t33.5 -97.5q0 -72 -47 -108.5t-102 -36.5q-80 0 -119 53t-39 127q0 59 24.5 125t72 121t119 94t165.5 45zM502 1274q-39 -8 -77 -16.5t-70.5 -21.5t-58.5 -36.5t-40 -62.5 q70 -4 102.5 -48.5t32.5 -97.5q0 -72 -47 -108.5t-102 -36.5q-80 0 -119 53t-39 127q0 59 24.5 125t71.5 121t119 94t166 45z" />
<glyph unicode="&#x201d;" d="M59 1051q39 8 77 16t71 21.5t58.5 37t39.5 62.5q-70 4 -102.5 48t-32.5 97q0 72 47 109t102 37q80 0 119 -53.5t39 -127.5q0 -59 -24.5 -124.5t-71.5 -121t-119 -93t-166 -44.5zM543 1051q39 8 76.5 16t70.5 21.5t58.5 37t39.5 62.5q-70 4 -102.5 48t-32.5 97 q0 72 46 109t104 37q80 0 119 -53.5t39 -127.5q0 -59 -25 -124.5t-73 -121t-118.5 -93t-164.5 -44.5z" />
<glyph unicode="&#x201e;" d="M25 -158q39 8 76.5 16.5t69.5 22t57.5 37t39.5 59.5q-68 6 -101.5 50.5t-33.5 97.5q0 72 47 107.5t103 35.5q80 0 118.5 -52t38.5 -126q0 -59 -24.5 -124.5t-71.5 -121t-118.5 -94.5t-166.5 -45zM506 -158q39 8 77 16.5t70.5 22t58 37t40.5 59.5q-70 6 -103 50.5 t-33 97.5q0 72 47.5 107.5t102.5 35.5q80 0 119 -52t39 -126q0 -59 -25 -124.5t-72 -121t-118.5 -94.5t-165.5 -45z" />
<glyph unicode="&#x2022;" d="M791 643q0 -59 -19.5 -111.5t-55.5 -93.5t-88.5 -64.5t-115.5 -23.5q-66 0 -117 23.5t-87 64.5t-55.5 93.5t-19.5 111.5q0 57 19.5 110.5t55.5 94.5t87 64.5t117 23.5q63 0 115.5 -23.5t88.5 -64.5t55.5 -94.5t19.5 -110.5z" />
<glyph unicode="&#x2026;" d="M854 -25q-57 0 -88 42t-31 94q0 51 31 92t88 41t88 -42t31 -91q0 -51 -30 -93.5t-89 -42.5zM516 -25q-59 0 -89 42t-30 94q0 51 30 92t89 41q55 0 87 -42t32 -91q0 -51 -31 -93.5t-88 -42.5zM176 -25q-59 0 -89 42t-30 94q0 51 30 92t89 41q55 0 87 -42t32 -91 q0 -51 -31 -93.5t-88 -42.5z" />
<glyph unicode="&#x202f;" horiz-adv-x="340" />
<glyph unicode="&#x2039;" d="M592 520l186 -342l-207 -98l-301 440l301 438l207 -96z" />
<glyph unicode="&#x203a;" d="M317 862l207 96l301 -438l-301 -440l-207 98l187 342z" />
<glyph unicode="&#x2044;" d="M971 1268l-715 -1268h-205l715 1268h205z" />
<glyph unicode="&#x205f;" horiz-adv-x="425" />
<glyph unicode="&#x2070;" d="M209 918q0 182 79 280t226 98q145 0 224 -98t79 -280t-79 -280.5t-224 -98.5q-147 0 -226 98.5t-79 280.5zM623 918q0 96 -22.5 155.5t-84.5 59.5q-61 0 -87 -59.5t-26 -155.5q0 -98 26 -157t87 -59t84 59t23 157zM573 924q0 -33 -16 -55.5t-45 -22.5t-45 22.5t-16 55.5 t16 55t45 22t45 -22t16 -55z" />
<glyph unicode="&#x2074;" d="M696 1282v-422h84v-151h-84v-158h-172v158h-342v131q78 131 157 234.5t177 207.5h180zM524 1079q-41 -47 -78.5 -100t-70.5 -119h149v219z" />
<glyph unicode="&#x2075;" d="M778 784q0 -109 -67.5 -177t-237.5 -68q-66 0 -132.5 11t-109.5 34l41 161q37 -14 76 -25t107 -11q119 0 118 73q0 61 -74.5 73.5t-219.5 12.5q6 49 11 107.5l10 117t9 108.5t8 81h435v-166h-281q0 -18 -2 -50t-6 -52q178 -4 246.5 -65t68.5 -165z" />
<glyph unicode="&#x2076;" d="M471 877q-23 0 -47.5 -6.5t-36.5 -12.5q-10 -164 105 -164q47 0 66.5 28t19.5 62q0 47 -24 70t-83 23zM508 1010q137 0 194.5 -62.5t57.5 -156.5q0 -49 -16.5 -95.5t-50.5 -81t-85 -55t-121 -20.5q-141 0 -213.5 80.5t-72.5 230.5q0 203 132 318.5t367 115.5l9 -164 q-129 -4 -200 -36.5t-108 -94.5q16 8 46 14.5t61 6.5z" />
<glyph unicode="&#x2077;" d="M334 553q27 180 78 311t133 242h-326v176h561v-154q-37 -41 -73.5 -103t-69.5 -137t-57.5 -161t-36.5 -174h-209z" />
<glyph unicode="&#x2078;" d="M807 756q0 -96 -68.5 -156.5t-228.5 -60.5q-90 0 -147.5 20.5t-90 51t-44 66.5t-11.5 66q0 66 33 106t82 71q-51 37 -73.5 73.5t-22.5 91.5q0 41 17 79t51 68t86 47t122 17q80 0 133 -18t85 -47t45 -65t13 -68q0 -49 -28.5 -92t-73.5 -70q68 -41 94.5 -83t26.5 -97z M410 756q0 -27 21.5 -51.5t80.5 -24.5q57 0 79.5 23.5t22.5 52.5q0 45 -37.5 70.5t-99.5 37.5q-31 -20 -49 -45.5t-18 -62.5zM602 1085q0 23 -20.5 46.5t-67.5 23.5t-67.5 -23.5t-20.5 -46.5q0 -31 22.5 -58.5t81.5 -43.5q37 20 54.5 42.5t17.5 59.5z" />
<glyph unicode="&#x2079;" d="M555 963q23 0 47.5 5t36.5 13q10 162 -100 162q-47 0 -68.5 -25.5t-21.5 -60.5q0 -45 23.5 -69.5t82.5 -24.5zM516 825q-68 0 -116 17.5t-78.5 48.5t-44 72t-13.5 88t16.5 91t50.5 78.5t85 55t121 20.5q143 0 214.5 -83t71.5 -230q0 -201 -120.5 -316.5t-378.5 -115.5 l-9 162q141 4 210 35.5t100 97.5q-16 -8 -47 -14.5t-62 -6.5z" />
<glyph unicode="&#x2080;" d="M209 369q0 182 79 280t226 98q145 0 224 -98t79 -280t-79 -280.5t-224 -98.5q-147 0 -226 98.5t-79 280.5zM623 369q0 96 -22.5 155.5t-84.5 59.5q-61 0 -87 -59.5t-26 -155.5q0 -98 26 -157t87 -59t84 59t23 157zM573 375q0 -33 -16 -55.5t-45 -22.5t-45 22.5t-16 55.5 t16 55t45 22t45 -22t16 -55z" />
<glyph unicode="&#x2081;" d="M283 4v166h204v328q-37 -23 -74.5 -38.5t-93.5 -37.5l-55 159q78 31 149.5 70t125.5 82h157v-563h168v-166h-581z" />
<glyph unicode="&#x2082;" d="M772 522q0 -80 -47 -134t-102 -101q-33 -27 -65 -57.5t-54 -59.5h287v-166h-527v51q0 90 48 162t141 149q51 43 80.5 74t29.5 64q0 29 -16.5 45t-46.5 16q-53 0 -98.5 -20.5t-75.5 -46.5l-95 141q47 41 121 74.5t156 33.5q143 0 203.5 -62.5t60.5 -162.5z" />
<glyph unicode="&#x2083;" d="M473 160q66 0 91.5 20.5t25.5 48.5q0 74 -129 74h-76v149h76q43 0 69.5 16.5t26.5 51.5q0 57 -80 57q-43 0 -84 -14t-80 -31l-69 144q45 29 113.5 50t134.5 21q74 0 124 -16t80.5 -44t43 -65.5t12.5 -78.5q0 -39 -17.5 -73t-58.5 -69q59 -27 84.5 -73t25.5 -101 q0 -51 -16 -94t-53 -75t-96.5 -50t-145.5 -18q-61 0 -132 13t-112 36l43 162q61 -27 104.5 -34t94.5 -7z" />
<glyph unicode="&#x2084;" d="M696 733v-422h84v-151h-84v-158h-172v158h-342v131q78 131 157 234.5t177 207.5h180zM524 530q-41 -47 -78.5 -100t-70.5 -119h149v219z" />
<glyph unicode="&#x2085;" d="M778 235q0 -109 -67.5 -177t-237.5 -68q-66 0 -132.5 11t-109.5 34l41 161q37 -14 76 -25t107 -11q119 0 118 73q0 61 -74.5 73.5t-219.5 12.5q6 49 11 107.5l10 117t9 108.5t8 81h435v-166h-281q0 -18 -2 -50t-6 -52q178 -4 246.5 -65t68.5 -165z" />
<glyph unicode="&#x2086;" d="M471 328q-23 0 -47.5 -6.5t-36.5 -12.5q-10 -164 105 -164q47 0 66.5 28t19.5 62q0 47 -24 70t-83 23zM508 461q137 0 194.5 -62.5t57.5 -156.5q0 -49 -16.5 -95.5t-50.5 -81t-85 -55t-121 -20.5q-141 0 -213.5 80.5t-72.5 230.5q0 203 132 318.5t367 115.5l9 -164 q-129 -4 -200 -36.5t-108 -94.5q16 8 46 14.5t61 6.5z" />
<glyph unicode="&#x2087;" d="M334 4q27 180 78 311t133 242h-326v176h561v-154q-37 -41 -73.5 -103t-69.5 -137t-57.5 -161t-36.5 -174h-209z" />
<glyph unicode="&#x2088;" d="M807 207q0 -96 -68.5 -156.5t-228.5 -60.5q-90 0 -147.5 20.5t-90 51t-44 66.5t-11.5 66q0 66 33 106t82 71q-51 37 -73.5 73.5t-22.5 91.5q0 41 17 79t51 68t86 47t122 17q80 0 133 -18t85 -47t45 -65t13 -68q0 -49 -28.5 -92t-73.5 -70q68 -41 94.5 -83t26.5 -97z M410 207q0 -27 21.5 -51.5t80.5 -24.5q57 0 79.5 23.5t22.5 52.5q0 45 -37.5 70.5t-99.5 37.5q-31 -20 -49 -45.5t-18 -62.5zM602 536q0 23 -20.5 46.5t-67.5 23.5t-67.5 -23.5t-20.5 -46.5q0 -31 22.5 -58.5t81.5 -43.5q37 20 54.5 42.5t17.5 59.5z" />
<glyph unicode="&#x2089;" d="M555 414q23 0 47.5 5t36.5 13q10 162 -100 162q-47 0 -68.5 -25.5t-21.5 -60.5q0 -45 23.5 -69.5t82.5 -24.5zM516 276q-68 0 -116 17.5t-78.5 48.5t-44 72t-13.5 88t16.5 91t50.5 78.5t85 55t121 20.5q143 0 214.5 -83t71.5 -230q0 -201 -120.5 -316.5t-378.5 -115.5 l-9 162q141 4 210 35.5t100 97.5q-16 -8 -47 -14.5t-62 -6.5z" />
<glyph unicode="&#x20ac;" d="M205 874q47 211 174 314.5t309 103.5q59 0 125 -8t135 -37l-55 -209q-37 16 -85 25.5t-108 9.5q-104 0 -157.5 -53t-75.5 -146h373l-35 -172h-363q-2 -16 -3 -31.5t-1 -31.5t1 -32.5t3 -33.5h340l-34 -172h-281q25 -109 86 -156.5t137 -47.5q53 0 116.5 10t119.5 37 l53 -203q-63 -31 -140 -48.5t-155 -17.5q-86 0 -166 24t-144.5 74t-110.5 131t-66 197h-134v172h117v129h-117v172h142z" />
<glyph unicode="&#x2122;" d="M418 1268v-103h-131v-434h-119v434h-131v103h381zM668 872l-80 238q-4 -41 -6 -102.5t-3 -120t-2.5 -103.5t-1.5 -53h-118q6 102 12 178t13 137.5t14.5 113.5t17.5 108h111l90 -279l96 279h111q10 -55 17 -108.5t13 -115t11.5 -137.5t11.5 -176h-119q0 8 -1 53t-2 103.5 t-3 120t-4 102.5l-86 -238h-92z" />
<glyph unicode="&#x2153;" d="M612 143q23 -10 63 -21t81 -11q47 0 70.5 9t23.5 36q0 53 -123 53h-39v117h45q53 0 72.5 10t19.5 31q0 18 -15 26t-38 8q-35 0 -76 -12t-59 -22l-47 110q31 23 88 37t117 14q109 0 156.5 -42t47.5 -95q0 -78 -59 -115q86 -41 86 -129q0 -47 -19.5 -77.5t-54 -50 t-81 -27.5t-101.5 -8q-59 0 -110.5 9t-86.5 25zM4 1141q70 31 121 62.5t100 78.5h129v-512h-174v307q-41 -23 -69.5 -35t-67.5 -22zM915 1268l-649 -1268h-205l650 1268h204z" />
<glyph unicode="&#x2154;" d="M612 143q23 -10 63 -21t81 -11q47 0 70.5 9t23.5 36q0 53 -123 53h-39v117h45q53 0 72.5 10t19.5 31q0 18 -15 26t-38 8q-35 0 -76 -12t-59 -22l-47 110q31 23 88 37t117 14q109 0 156.5 -42t47.5 -95q0 -78 -59 -115q86 -41 86 -129q0 -47 -19.5 -77.5t-54 -50 t-81 -27.5t-101.5 -8q-59 0 -110.5 9t-86.5 25zM438 895v-129h-428q-2 12 -3 24.5t-1 22.5q0 72 42 111t102 77l47 31q33 20 45 34.5t12 41.5q0 45 -53 45q-29 0 -60.5 -16.5t-56.5 -42.5l-84 110q39 45 98.5 68.5t124.5 23.5q80 0 142.5 -41t62.5 -127q0 -55 -22.5 -89.5 t-55.5 -59.5t-69.5 -44.5t-65.5 -39.5h223zM954 1268l-649 -1268h-205l650 1268h204z" />
<glyph unicode="&#x2155;" d="M4 1141q70 31 121 62.5t100 78.5h129v-512h-174v307q-41 -23 -69.5 -35t-67.5 -22zM803 346q129 -12 175 -61t46 -123q0 -47 -19.5 -81t-53 -55.5t-78 -31.5t-95.5 -10q-55 0 -106 14t-86 37l32 125q33 -20 77 -33.5t83 -13.5q41 0 55.5 15t14.5 36q0 12 -6 22.5 t-24.5 19.5t-52.5 14t-87 5h-37q6 47 9 82t5 67t4.5 64.5t4.5 75.5h337v-129h-194zM936 1268l-649 -1268h-205l649 1268h205z" />
<glyph unicode="&#x2156;" d="M803 346q129 -12 175 -61t46 -123q0 -47 -19.5 -81t-53 -55.5t-78 -31.5t-95.5 -10q-55 0 -106 14t-86 37l32 125q33 -20 77 -33.5t83 -13.5q41 0 55.5 15t14.5 36q0 12 -6 22.5t-24.5 19.5t-52.5 14t-87 5h-37q6 47 9 82t5 67t4.5 64.5t4.5 75.5h337v-129h-194zM438 895 v-129h-428q-2 12 -3 24.5t-1 22.5q0 72 42 111t102 77l47 31q33 20 45 34.5t12 41.5q0 45 -53 45q-29 0 -60.5 -16.5t-56.5 -42.5l-84 110q39 45 98.5 68.5t124.5 23.5q80 0 142.5 -41t62.5 -127q0 -55 -22.5 -89.5t-55.5 -59.5t-69.5 -44.5t-65.5 -39.5h223zM973 1268 l-649 -1268h-205l649 1268h205z" />
<glyph unicode="&#x2157;" d="M61 911q23 -10 63 -20t81 -10q47 0 70.5 8t23.5 35q0 53 -121 53h-41v117h45q53 0 72.5 10t19.5 31q0 18 -15 26t-38 8q-35 0 -76 -12t-59 -22l-45 110q29 23 86 37t119 14q106 0 155.5 -42t49.5 -95q0 -76 -62 -115q86 -41 86 -129q0 -47 -19.5 -77.5t-54 -50t-81 -27.5 t-101.5 -8q-57 0 -109.5 9t-84.5 25zM803 346q129 -12 175 -61t46 -123q0 -47 -19.5 -81t-53 -55.5t-78 -31.5t-95.5 -10q-55 0 -106 14t-86 37l32 125q33 -20 77 -33.5t83 -13.5q41 0 55.5 15t14.5 36q0 12 -6 22.5t-24.5 19.5t-52.5 14t-87 5h-37q6 47 9 82t5 67t4.5 64.5 t4.5 75.5h337v-129h-194zM973 1268l-649 -1268h-205l649 1268h205z" />
<glyph unicode="&#x2158;" d="M803 346q129 -12 175 -61t46 -123q0 -47 -19.5 -81t-53 -55.5t-78 -31.5t-95.5 -10q-55 0 -106 14t-86 37l32 125q33 -20 77 -33.5t83 -13.5q41 0 55.5 15t14.5 36q0 12 -6 22.5t-24.5 19.5t-52.5 14t-87 5h-37q6 47 9 82t5 67t4.5 64.5t4.5 75.5h337v-129h-194z M418 1282v-303h74v-129h-74v-80h-164v80h-254v92q47 88 93 166t112 174h213zM254 1151q-31 -47 -56.5 -89t-47.5 -83h104v172zM985 1268l-649 -1268h-205l649 1268h205z" />
<glyph unicode="&#x2159;" d="M969 391q-98 -6 -161 -16t-93 -45q16 4 29.5 6t25.5 2q109 0 159 -42t50 -122q0 -86 -56.5 -139t-162.5 -53q-98 0 -160.5 53t-62.5 170q0 168 109.5 250t307.5 75zM760 217q-23 0 -40.5 -3t-33.5 -7q4 -66 29.5 -81t54.5 -15t44 15t15 38q1 53 -69 53zM4 1141 q70 31 121 62.5t100 78.5h129v-512h-174v307q-41 -23 -69.5 -35t-67.5 -22zM932 1268l-649 -1268h-205l649 1268h205z" />
<glyph unicode="&#x215a;" d="M969 391q-98 -6 -161 -16t-93 -45q16 4 29.5 6t25.5 2q109 0 159 -42t50 -122q0 -86 -56.5 -139t-162.5 -53q-98 0 -160.5 53t-62.5 170q0 168 109.5 250t307.5 75zM229 1114q129 -12 175.5 -61t46.5 -121q0 -49 -19.5 -83t-53.5 -55.5t-79 -31.5t-94 -10 q-57 0 -108.5 14t-86.5 37l33 125q35 -20 78 -33.5t82 -13.5q41 0 56 15t15 36q0 12 -6 22.5t-24.5 19.5t-52 14t-87.5 5h-38q6 47 9 82t6 67t5 64.5t4 75.5h338v-129h-197zM760 217q-23 0 -40.5 -3t-33.5 -7q4 -66 29.5 -81t54.5 -15t44 15t15 38q1 53 -69 53zM950 1268 l-649 -1268h-205l649 1268h205z" />
<glyph unicode="&#x215b;" d="M528 141q0 29 18.5 64t61.5 59q-27 20 -44 49t-17 70q0 37 19.5 64.5t50 46t70.5 27.5t81 9t81 -9t70.5 -26.5t50 -44t19.5 -61.5t-14 -63.5t-49 -51.5q76 -41 80 -129q2 -61 -53.5 -110t-186.5 -49q-104 0 -171 38.5t-67 116.5zM4 1141q70 31 121 62.5t100 78.5h129 v-512h-174v307q-41 -23 -69.5 -35t-67.5 -22zM848 147q0 25 -36 37.5t-85 26.5q-41 -23 -41 -61q0 -23 25.5 -33.5t54.5 -10.5q31 0 56.5 9t25.5 32zM705 379q0 -12 18 -24.5t65 -28.5l5 -2q16 12 27 24t11 29q0 16 -19 24.5t-44 8.5q-18 0 -40.5 -7.5t-22.5 -23.5z M899 1268l-649 -1268h-205l649 1268h205z" />
<glyph unicode="&#x215c;" d="M547 141q0 29 18.5 64t61.5 59q-29 20 -45.5 49t-16.5 70q0 37 19.5 64.5t50.5 46t70.5 27.5t80.5 9t81 -9t71 -26.5t50.5 -44t19.5 -61.5t-14.5 -63.5t-49.5 -51.5q76 -41 80 -129q2 -61 -53.5 -110t-186.5 -49q-104 0 -170.5 38.5t-66.5 116.5zM43 911q23 -10 62.5 -20 t80.5 -10q47 0 72 8t25 35q0 53 -123 53h-41v117h45q53 0 72.5 10t19.5 31q0 18 -15.5 26t-37.5 8q-35 0 -75 -12t-60 -22l-45 110q29 23 86 37t118 14q106 0 155.5 -42t49.5 -95q0 -76 -61 -115q86 -41 86 -129q0 -47 -19.5 -77.5t-54.5 -50t-81 -27.5t-101 -8 q-57 0 -109.5 9t-85.5 25zM866 147q0 25 -35.5 37.5t-85.5 26.5q-41 -23 -40 -61q0 -23 24.5 -33.5t54.5 -10.5q31 0 56.5 9t25.5 32zM723 379q0 -12 18.5 -24.5t65.5 -28.5l4 -2q16 12 27.5 24t11.5 29q0 16 -19.5 24.5t-44.5 8.5q-20 0 -41.5 -7.5t-21.5 -23.5zM936 1268 l-649 -1268h-205l649 1268h205z" />
<glyph unicode="&#x215d;" d="M547 141q0 29 18.5 64t61.5 59q-29 20 -45.5 49t-16.5 70q0 37 19.5 64.5t50.5 46t70.5 27.5t80.5 9t81 -9t71 -26.5t50.5 -44t19.5 -61.5t-14.5 -63.5t-49.5 -51.5q76 -41 80 -129q2 -61 -53.5 -110t-186.5 -49q-104 0 -170.5 38.5t-66.5 116.5zM229 1114 q129 -12 175.5 -61t46.5 -121q0 -49 -19.5 -83t-53.5 -55.5t-79 -31.5t-94 -10q-57 0 -108.5 14t-86.5 37l33 125q35 -20 78 -33.5t82 -13.5q41 0 56 15t15 36q0 12 -6 22.5t-24.5 19.5t-52 14t-87.5 5h-38q6 47 9 82t6 67t5 64.5t4 75.5h338v-129h-197zM866 147 q0 25 -35.5 37.5t-85.5 26.5q-41 -23 -40 -61q0 -23 24.5 -33.5t54.5 -10.5q31 0 56.5 9t25.5 32zM723 379q0 -12 18.5 -24.5t65.5 -28.5l4 -2q16 12 27.5 24t11.5 29q0 16 -19.5 24.5t-44.5 8.5q-20 0 -41.5 -7.5t-21.5 -23.5zM936 1268l-649 -1268h-205l649 1268h205z" />
<glyph unicode="&#x215e;" d="M547 141q0 29 18.5 64t61.5 59q-29 20 -45.5 49t-16.5 70q0 37 19.5 64.5t50.5 46t70.5 27.5t80.5 9t81 -9t71 -26.5t50.5 -44t19.5 -61.5t-14.5 -63.5t-49.5 -51.5q76 -41 80 -129q2 -61 -53.5 -110t-186.5 -49q-104 0 -170.5 38.5t-66.5 116.5zM866 147 q0 25 -35.5 37.5t-85.5 26.5q-41 -23 -40 -61q0 -23 24.5 -33.5t54.5 -10.5q31 0 56.5 9t25.5 32zM723 379q0 -12 18.5 -24.5t65.5 -28.5l4 -2q16 12 27.5 24t11.5 29q0 16 -19.5 24.5t-44.5 8.5q-20 0 -41.5 -7.5t-21.5 -23.5zM117 770q12 70 24.5 119t27.5 91t38.5 81 t60.5 92h-205v129h396v-102q-49 -55 -78 -97.5t-46.5 -86.5t-27.5 -97t-22 -129h-168zM899 1268l-649 -1268h-205l649 1268h205z" />
<glyph unicode="&#x25fc;" horiz-adv-x="962" d="M0 963h963v-963h-963v963z" />
<glyph unicode="&#xf001;" d="M940 0h-233v963h233v-963zM983 1239q0 -76 -44 -118t-110 -42t-108.5 42t-42.5 118q0 78 43 120t108 42q66 0 110 -42t44 -120zM586 1184q-20 4 -35.5 4h-28.5q-45 0 -72.5 -13.5t-43 -37t-20.5 -56t-5 -71.5v-47h176v-209h-176v-754h-236v754h-108v209h108v51 q0 92 17.5 167.5t58.5 128t107.5 81t165.5 28.5q43 0 69.5 -3t61.5 -9z" />
<glyph unicode="&#xf002;" d="M985 -18q-98 6 -156.5 33.5t-90 70.5t-42 101.5t-10.5 127.5v1061l234 43v-1048q0 -72 17 -114t87 -50zM586 1184q-20 4 -35.5 4h-28.5q-45 0 -72.5 -13.5t-43 -37t-20.5 -56t-5 -71.5v-47h176v-209h-176v-754h-236v754h-108v209h108v51q0 92 17.5 167.5t58.5 128 t107.5 81t165.5 28.5q43 0 69.5 -3t61.5 -9z" />
<glyph unicode="&#xf506;" d="M4 1141q70 31 121 62.5t100 78.5h129v-512h-174v307q-41 -23 -69.5 -35t-67.5 -22zM682 0q12 70 24.5 119t28 91t39 82t60.5 93h-205v127h395v-102q-49 -55 -77.5 -97.5t-46 -86.5t-28 -97t-22.5 -129h-168zM950 1268l-649 -1268h-205l649 1268h205z" />
<glyph unicode="&#xf507;" d="M682 0q12 70 24.5 119t28 91t39 82t60.5 93h-205v127h395v-102q-49 -55 -77.5 -97.5t-46 -86.5t-28 -97t-22.5 -129h-168zM438 895v-129h-428q-2 12 -3 24.5t-1 22.5q0 72 42 111t102 77l47 31q33 20 45 34.5t12 41.5q0 45 -53 45q-29 0 -60.5 -16.5t-56.5 -42.5l-84 110 q39 45 98.5 68.5t124.5 23.5q80 0 142.5 -41t62.5 -127q0 -55 -22.5 -89.5t-55.5 -59.5t-69.5 -44.5t-65.5 -39.5h223zM965 1268l-650 -1268h-204l649 1268h205z" />
<glyph unicode="&#xf508;" d="M61 911q23 -10 63 -20t81 -10q47 0 70.5 8t23.5 35q0 53 -121 53h-41v117h45q53 0 72.5 10t19.5 31q0 18 -15 26t-38 8q-35 0 -76 -12t-59 -22l-45 110q29 23 86 37t119 14q106 0 155.5 -42t49.5 -95q0 -76 -62 -115q86 -41 86 -129q0 -47 -19.5 -77.5t-54 -50t-81 -27.5 t-101.5 -8q-57 0 -109.5 9t-84.5 25zM682 0q12 70 24.5 119t28 91t39 82t60.5 93h-205v127h395v-102q-49 -55 -77.5 -97.5t-46 -86.5t-28 -97t-22.5 -129h-168zM954 1268l-649 -1268h-205l650 1268h204z" />
<glyph unicode="&#xf509;" d="M682 0q12 70 24.5 119t28 91t39 82t60.5 93h-205v127h395v-102q-49 -55 -77.5 -97.5t-46 -86.5t-28 -97t-22.5 -129h-168zM418 1282v-303h74v-129h-74v-80h-164v80h-254v92q47 88 93 166t112 174h213zM254 1151q-31 -47 -56.5 -89t-47.5 -83h104v172zM973 1268 l-649 -1268h-205l649 1268h205z" />
<glyph unicode="&#xf50a;" d="M229 1114q129 -12 175.5 -61t46.5 -121q0 -49 -19.5 -83t-53.5 -55.5t-79 -31.5t-94 -10q-57 0 -108.5 14t-86.5 37l33 125q35 -20 78 -33.5t82 -13.5q41 0 56 15t15 36q0 12 -6 22.5t-24.5 19.5t-52 14t-87.5 5h-38q6 47 9 82t6 67t5 64.5t4 75.5h338v-129h-197zM682 0 q12 70 24.5 119t28 91t39 82t60.5 93h-205v127h395v-102q-49 -55 -77.5 -97.5t-46 -86.5t-28 -97t-22.5 -129h-168zM954 1268l-649 -1268h-205l650 1268h204z" />
<glyph unicode="&#xf50b;" d="M453 1161q-100 -6 -163 -16t-93 -45q16 4 29.5 6t25.5 2q109 0 159 -42t50 -122q0 -86 -55.5 -139t-161.5 -53q-98 0 -162 53t-64 170q0 162 103.5 243.5t292.5 81.5h22zM682 0q12 70 24.5 119t28 91t39 82t60.5 93h-205v127h395v-102q-49 -55 -77.5 -97.5t-46 -86.5 t-28 -97t-22.5 -129h-168zM242 987q-23 0 -40.5 -3t-33.5 -7q4 -66 29.5 -81t54.5 -15t44 15t15 38q1 53 -69 53zM954 1268l-649 -1268h-205l650 1268h204z" />
<glyph unicode="&#xf50c;" d="M582 121q98 6 160.5 15t91.5 44q-29 -6 -54 -6q-207 0 -207 164q0 86 55.5 139t162.5 53q41 0 81.5 -13t72.5 -40.5t51.5 -69.5t19.5 -100q0 -168 -104.5 -246.5t-315.5 -78.5zM4 1141q70 31 121 62.5t100 78.5h129v-512h-174v307q-41 -23 -69.5 -35t-67.5 -22zM793 295 q37 0 71 10q-2 63 -28.5 79.5t-55.5 16.5t-43 -15t-14 -38q0 -53 70 -53zM918 1268l-650 -1268h-205l650 1268h205z" />
<glyph unicode="&#xf50d;" d="M582 121q98 6 160.5 15t91.5 44q-29 -6 -54 -6q-207 0 -207 164q0 86 55.5 139t162.5 53q41 0 81.5 -13t72.5 -40.5t51.5 -69.5t19.5 -100q0 -168 -104.5 -246.5t-315.5 -78.5zM793 295q37 0 71 10q-2 63 -28.5 79.5t-55.5 16.5t-43 -15t-14 -38q0 -53 70 -53zM438 895 v-129h-428q-2 12 -3 24.5t-1 22.5q0 72 42 111t102 77l47 31q33 20 45 34.5t12 41.5q0 45 -53 45q-29 0 -60.5 -16.5t-56.5 -42.5l-84 110q39 45 98.5 68.5t124.5 23.5q80 0 142.5 -41t62.5 -127q0 -55 -22.5 -89.5t-55.5 -59.5t-69.5 -44.5t-65.5 -39.5h223zM954 1268 l-649 -1268h-205l650 1268h204z" />
<glyph unicode="&#xf50e;" d="M590 121q100 6 161.5 15t92.5 44q-29 -6 -53 -6q-109 0 -159 42t-50 122q0 86 55 139t162 53q43 0 83 -13t71.5 -40.5t51 -69.5t19.5 -100q0 -168 -103.5 -246.5t-314.5 -78.5zM801 295q37 0 73 10q-4 63 -29.5 79.5t-53.5 16.5q-29 0 -44.5 -15t-15.5 -38q0 -53 70 -53z M418 1282v-303h74v-129h-74v-80h-164v80h-254v92q47 88 93 166t112 174h213zM254 1151q-31 -47 -56.5 -89t-47.5 -83h104v172zM969 1268l-650 -1268h-204l649 1268h205z" />
<glyph unicode="&#xf50f;" d="M582 121q98 6 160.5 15t91.5 44q-29 -6 -54 -6q-207 0 -207 164q0 86 55.5 139t162.5 53q41 0 81.5 -13t72.5 -40.5t51.5 -69.5t19.5 -100q0 -168 -104.5 -246.5t-315.5 -78.5zM229 1114q129 -12 175.5 -61t46.5 -121q0 -49 -19.5 -83t-53.5 -55.5t-79 -31.5t-94 -10 q-57 0 -108.5 14t-86.5 37l33 125q35 -20 78 -33.5t82 -13.5q41 0 56 15t15 36q0 12 -6 22.5t-24.5 19.5t-52 14t-87.5 5h-38q6 47 9 82t6 67t5 64.5t4 75.5h338v-129h-197zM793 295q37 0 71 10q-2 63 -28.5 79.5t-55.5 16.5t-43 -15t-14 -38q0 -53 70 -53zM938 1268 l-649 -1268h-205l649 1268h205z" />
<glyph unicode="&#xf510;" d="M545 121q98 6 160.5 15t91.5 44q-29 -6 -54 -6q-207 0 -206 164q0 86 55 139t162 53q41 0 82 -13t72.5 -40.5t51 -69.5t19.5 -100q0 -168 -104.5 -246.5t-315.5 -78.5zM117 770q12 70 24.5 119t27.5 91t38.5 81t60.5 92h-205v129h396v-102q-49 -55 -78 -97.5t-46.5 -86.5 t-27.5 -97t-22 -129h-168zM756 295q37 0 73 10q-4 63 -30.5 79.5t-55.5 16.5q-27 0 -42 -15t-15 -38q0 -53 70 -53zM887 1268l-649 -1268h-205l649 1268h205z" />
<glyph unicode="&#xf511;" d="M0 907q0 31 18.5 65t61.5 58q-29 20 -45.5 49t-16.5 70q0 37 19.5 64.5t50.5 46t71 27.5t81 9t80.5 -9t70.5 -26.5t50.5 -44t19.5 -61.5t-14.5 -63.5t-49.5 -51.5q76 -41 80 -129q2 -61 -53 -110t-186 -49q-104 0 -171 38.5t-67 116.5zM590 121q100 6 161.5 15t92.5 44 q-29 -6 -53 -6q-109 0 -159 42t-50 122q0 86 55 139t162 53q43 0 83 -13t71.5 -40.5t51 -69.5t19.5 -100q0 -168 -103.5 -246.5t-314.5 -78.5zM319 915q0 23 -35.5 35.5t-84.5 26.5q-41 -23 -41 -62q0 -23 24.5 -33t55.5 -10t56 10t25 33zM801 295q37 0 73 10 q-4 63 -29.5 79.5t-53.5 16.5q-29 0 -44.5 -15t-15.5 -38q0 -53 70 -53zM176 1145q0 -12 18.5 -25.5t69.5 -29.5q16 12 27.5 24t11.5 29q0 16 -19.5 24.5t-43.5 8.5q-20 0 -42 -6.5t-22 -24.5zM952 1268l-649 -1268h-205l650 1268h204z" />
<glyph unicode="&#xf80a;" d="M209 1137q0 182 79 280t226 98q145 0 224 -98t79 -280t-79 -280.5t-224 -98.5q-147 0 -226 98.5t-79 280.5zM623 1137q0 96 -22.5 155.5t-84.5 59.5q-61 0 -87 -59.5t-26 -155.5q0 -98 26 -157t87 -59t84 59t23 157zM573 1143q0 -33 -16 -55.5t-45 -22.5t-45 22.5 t-16 55.5t16 55t45 22t45 -22t16 -55z" />
<glyph unicode="&#xf80b;" d="M283 772v166h204v328q-37 -23 -74.5 -38.5t-93.5 -37.5l-55 159q78 31 149.5 70t125.5 82h157v-563h168v-166h-581z" />
<glyph unicode="&#xf80c;" d="M772 1290q0 -80 -47 -134t-102 -101q-33 -27 -65 -57.5t-54 -59.5h287v-166h-527v51q0 90 48 162t141 149q51 43 80.5 74t29.5 64q0 29 -16.5 45t-46.5 16q-53 0 -98.5 -20.5t-75.5 -46.5l-95 141q47 41 121 74.5t156 33.5q143 0 203.5 -62.5t60.5 -162.5z" />
<glyph unicode="&#xf80d;" d="M473 928q66 0 91.5 20.5t25.5 48.5q0 74 -129 74h-76v149h76q43 0 69.5 16.5t26.5 51.5q0 57 -80 57q-43 0 -84 -14t-80 -31l-69 144q45 29 113.5 50t134.5 21q74 0 124 -16t80.5 -44t43 -65.5t12.5 -78.5q0 -39 -17.5 -73t-58.5 -69q59 -27 84.5 -73t25.5 -101 q0 -51 -16 -94t-53 -75t-96.5 -50t-145.5 -18q-61 0 -132 13t-112 36l43 162q61 -27 104.5 -34t94.5 -7z" />
<glyph unicode="&#xf80e;" d="M696 1501v-422h84v-151h-84v-158h-172v158h-342v131q78 131 157 234.5t177 207.5h180zM524 1298q-41 -47 -78.5 -100t-70.5 -119h149v219z" />
<glyph unicode="&#xf80f;" d="M778 1003q0 -109 -67.5 -177t-237.5 -68q-66 0 -132.5 11t-109.5 34l41 161q37 -14 76 -25t107 -11q119 0 118 73q0 61 -74.5 73.5t-219.5 12.5q6 49 11 107.5l10 117t9 108.5t8 81h435v-166h-281q0 -18 -2 -50t-6 -52q178 -4 246.5 -65t68.5 -165z" />
<glyph unicode="&#xf810;" d="M471 1096q-23 0 -47.5 -6.5t-36.5 -12.5q-10 -164 105 -164q47 0 66.5 28t19.5 62q0 47 -24 70t-83 23zM508 1229q137 0 194.5 -62.5t57.5 -156.5q0 -49 -16.5 -95.5t-50.5 -81t-85 -55t-121 -20.5q-141 0 -213.5 80.5t-72.5 230.5q0 203 132 318.5t367 115.5l9 -164 q-129 -4 -200 -36.5t-108 -94.5q16 8 46 14.5t61 6.5z" />
<glyph unicode="&#xf811;" d="M334 772q27 180 78 311t133 242h-326v176h561v-154q-37 -41 -73.5 -103t-69.5 -137t-57.5 -161t-36.5 -174h-209z" />
<glyph unicode="&#xf812;" d="M807 975q0 -96 -68.5 -156.5t-228.5 -60.5q-90 0 -147.5 20.5t-90 51t-44 66.5t-11.5 66q0 66 33 106t82 71q-51 37 -73.5 73.5t-22.5 91.5q0 41 17 79t51 68t86 47t122 17q80 0 133 -18t85 -47t45 -65t13 -68q0 -49 -28.5 -92t-73.5 -70q68 -41 94.5 -83t26.5 -97z M410 975q0 -27 21.5 -51.5t80.5 -24.5q57 0 79.5 23.5t22.5 52.5q0 45 -37.5 70.5t-99.5 37.5q-31 -20 -49 -45.5t-18 -62.5zM602 1304q0 23 -20.5 46.5t-67.5 23.5t-67.5 -23.5t-20.5 -46.5q0 -31 22.5 -58.5t81.5 -43.5q37 20 54.5 42.5t17.5 59.5z" />
<glyph unicode="&#xf813;" d="M555 1182q23 0 47.5 5t36.5 13q10 162 -100 162q-47 0 -68.5 -25.5t-21.5 -60.5q0 -45 23.5 -69.5t82.5 -24.5zM516 1044q-68 0 -116 17.5t-78.5 48.5t-44 72t-13.5 88t16.5 91t50.5 78.5t85 55t121 20.5q143 0 214.5 -83t71.5 -230q0 -201 -120.5 -316.5t-378.5 -115.5 l-9 162q141 4 210 35.5t100 97.5q-16 -8 -47 -14.5t-62 -6.5z" />
<glyph unicode="&#xf814;" d="M209 150q0 182 79 280t226 98q145 0 224 -98t79 -280t-79 -280.5t-224 -98.5q-147 0 -226 98.5t-79 280.5zM623 150q0 96 -22.5 155.5t-84.5 59.5q-61 0 -87 -59.5t-26 -155.5q0 -98 26 -157t87 -59t84 59t23 157zM573 156q0 -33 -16 -55.5t-45 -22.5t-45 22.5t-16 55.5 t16 55t45 22t45 -22t16 -55z" />
<glyph unicode="&#xf815;" d="M283 -215v166h204v328q-37 -23 -74.5 -38.5t-93.5 -37.5l-55 159q78 31 149.5 70t125.5 82h157v-563h168v-166h-581z" />
<glyph unicode="&#xf816;" d="M772 303q0 -80 -47 -134t-102 -101q-33 -27 -65 -57.5t-54 -59.5h287v-166h-527v51q0 90 48 162t141 149q51 43 80.5 74t29.5 64q0 29 -16.5 45t-46.5 16q-53 0 -98.5 -20.5t-75.5 -46.5l-95 141q47 41 121 74.5t156 33.5q143 0 203.5 -62.5t60.5 -162.5z" />
<glyph unicode="&#xf817;" d="M473 -59q66 0 91.5 20.5t25.5 48.5q0 74 -129 74h-76v149h76q43 0 69.5 16.5t26.5 51.5q0 57 -80 57q-43 0 -84 -14t-80 -31l-69 144q45 29 113.5 50t134.5 21q74 0 124 -16t80.5 -44t43 -65.5t12.5 -78.5q0 -39 -17.5 -73t-58.5 -69q59 -27 84.5 -73t25.5 -101 q0 -51 -16 -94t-53 -75t-96.5 -50t-145.5 -18q-61 0 -132 13t-112 36l43 162q61 -27 104.5 -34t94.5 -7z" />
<glyph unicode="&#xf818;" d="M696 514v-422h84v-151h-84v-158h-172v158h-342v131q78 131 157 234.5t177 207.5h180zM524 311q-41 -47 -78.5 -100t-70.5 -119h149v219z" />
<glyph unicode="&#xf819;" d="M778 16q0 -109 -67.5 -177t-237.5 -68q-66 0 -132.5 11t-109.5 34l41 161q37 -14 76 -25t107 -11q119 0 118 73q0 61 -74.5 73.5t-219.5 12.5q6 49 11 107.5l10 117t9 108.5t8 81h435v-166h-281q0 -18 -2 -50t-6 -52q178 -4 246.5 -65t68.5 -165z" />
<glyph unicode="&#xf81a;" d="M471 109q-23 0 -47.5 -6.5t-36.5 -12.5q-10 -164 105 -164q47 0 66.5 28t19.5 62q0 47 -24 70t-83 23zM508 242q137 0 194.5 -62.5t57.5 -156.5q0 -49 -16.5 -95.5t-50.5 -81t-85 -55t-121 -20.5q-141 0 -213.5 80.5t-72.5 230.5q0 203 132 318.5t367 115.5l9 -164 q-129 -4 -200 -36.5t-108 -94.5q16 8 46 14.5t61 6.5z" />
<glyph unicode="&#xf81b;" d="M334 -215q27 180 78 311t133 242h-326v176h561v-154q-37 -41 -73.5 -103t-69.5 -137t-57.5 -161t-36.5 -174h-209z" />
<glyph unicode="&#xf81c;" d="M807 -12q0 -96 -68.5 -156.5t-228.5 -60.5q-90 0 -147.5 20.5t-90 51t-44 66.5t-11.5 66q0 66 33 106t82 71q-51 37 -73.5 73.5t-22.5 91.5q0 41 17 79t51 68t86 47t122 17q80 0 133 -18t85 -47t45 -65t13 -68q0 -49 -28.5 -92t-73.5 -70q68 -41 94.5 -83t26.5 -97z M410 -12q0 -27 21.5 -51.5t80.5 -24.5q57 0 79.5 23.5t22.5 52.5q0 45 -37.5 70.5t-99.5 37.5q-31 -20 -49 -45.5t-18 -62.5zM602 317q0 23 -20.5 46.5t-67.5 23.5t-67.5 -23.5t-20.5 -46.5q0 -31 22.5 -58.5t81.5 -43.5q37 20 54.5 42.5t17.5 59.5z" />
<glyph unicode="&#xf81d;" d="M555 195q23 0 47.5 5t36.5 13q10 162 -100 162q-47 0 -68.5 -25.5t-21.5 -60.5q0 -45 23.5 -69.5t82.5 -24.5zM516 57q-68 0 -116 17.5t-78.5 48.5t-44 72t-13.5 88t16.5 91t50.5 78.5t85 55t121 20.5q143 0 214.5 -83t71.5 -230q0 -201 -120.5 -316.5t-378.5 -115.5 l-9 162q141 4 210 35.5t100 97.5q-16 -8 -47 -14.5t-62 -6.5z" />
<glyph unicode="&#xfb01;" d="M940 0h-233v963h233v-963zM983 1239q0 -76 -44 -118t-110 -42t-108.5 42t-42.5 118q0 78 43 120t108 42q66 0 110 -42t44 -120zM586 1184q-20 4 -35.5 4h-28.5q-45 0 -72.5 -13.5t-43 -37t-20.5 -56t-5 -71.5v-47h176v-209h-176v-754h-236v754h-108v209h108v51 q0 92 17.5 167.5t58.5 128t107.5 81t165.5 28.5q43 0 69.5 -3t61.5 -9z" />
<glyph unicode="&#xfb02;" d="M985 -18q-98 6 -156.5 33.5t-90 70.5t-42 101.5t-10.5 127.5v1061l234 43v-1048q0 -72 17 -114t87 -50zM586 1184q-20 4 -35.5 4h-28.5q-45 0 -72.5 -13.5t-43 -37t-20.5 -56t-5 -71.5v-47h176v-209h-176v-754h-236v754h-108v209h108v51q0 92 17.5 167.5t58.5 128 t107.5 81t165.5 28.5q43 0 69.5 -3t61.5 -9z" />
<glyph d="M582 1239q0 -74 -47.5 -117t-112.5 -43q-66 0 -112 43t-46 117q0 76 46 119t112 43t113 -43t47 -119zM956 41q-78 -37 -146.5 -50.5t-125.5 -13.5q-98 0 -164.5 29t-106.5 83t-56.5 132t-16.5 178v355h-266v209h518v-596q0 -86 31.5 -128t105.5 -42q35 0 84 9t111 38z " />
<glyph d="M426 633q0 -252 111.5 -437.5t308.5 -300.5l-117 -155q-279 154 -407.5 383t-128.5 510q0 283 133 519t411 390l117 -156q-197 -115 -312.5 -307t-115.5 -446z" />
<glyph d="M602 633q0 254 -115.5 446.5t-312.5 306.5l117 156q279 -154 412 -390.5t133 -518.5q0 -281 -129 -510.5t-408 -382.5l-117 155q197 115 308.5 300.5t111.5 437.5z" />
<glyph d="M231 755h562v-248h-562v248z" />
<glyph d="M358 -252h-262l574 1770h258z" />
<glyph d="M958 236q-55 -23 -127.5 -34t-125.5 -11q-78 0 -144.5 23.5t-116 73.5t-77 131t-27.5 198q0 86 15.5 161.5t52 132t95 89t144.5 32.5q39 0 96 -10v33q0 78 -49 132t-143 54q-68 0 -128.5 -28.5t-104.5 -100t-69.5 -191.5t-25.5 -302q0 -143 21.5 -254t74 -185.5 t139.5 -113.5t216 -39q96 0 151.5 10t71.5 16l23 -178q-35 -8 -64 -13t-57.5 -8t-58 -5t-66.5 -2q-135 0 -252 36.5t-202 128t-134 242t-49 377.5q0 221 42 371.5t113.5 244t164 133t194.5 39.5q84 0 157.5 -25.5t129 -80.5t88 -144.5t32.5 -216.5v-716zM555 629 q0 -39 5 -80t19.5 -74t40 -54.5t66.5 -21.5q27 0 57 7v409q-16 4 -30.5 6t-28.5 2q-39 0 -63.5 -17t-39 -45t-20.5 -62.5t-6 -69.5z" />
<glyph d="M231 1518h568v-197h-328v-1376h328v-197h-568v1770z" />
<glyph d="M100 1518h258l574 -1770h-260z" />
<glyph d="M793 -252h-570v197h328v1376h-328v197h570v-1770z" />
<glyph d="M383 631q111 -20 159 -90t48 -201v-231q0 -86 24.5 -125t90.5 -39h190v-197h-213q-184 0 -255 80t-71 231v301q0 86 -26.5 130.5t-89.5 44.5h-111v196h111q63 0 89.5 44t26.5 128v303q0 152 71 232t255 80h213v-197h-190q-66 0 -90.5 -38t-24.5 -126v-231 q0 -131 -48 -200.5t-159 -94.5z" />
<glyph d="M641 635q-111 20 -160 90t-49 201v231q0 86 -24.5 125t-90.5 39h-188v197h211q92 0 154.5 -20.5t100.5 -59.5t54.5 -97.5t16.5 -134.5v-301q0 -86 26.5 -130t89.5 -44h113v-196h-113q-63 0 -89.5 -44.5t-26.5 -128.5v-303q0 -76 -16.5 -134t-54.5 -97t-100.5 -59.5 t-154.5 -20.5h-211v197h188q66 0 90.5 37.5t24.5 126.5v231q0 131 49 200.5t160 94.5z" />
<glyph d="M592 633l186 -342l-207 -98l-301 440l301 438l207 -96z" />
<glyph d="M791 635q0 -59 -19.5 -111.5t-55.5 -93.5t-88.5 -64.5t-115.5 -23.5q-66 0 -117 23.5t-87 64.5t-55.5 93.5t-19.5 111.5q0 57 19.5 110.5t55.5 94.5t87 64.5t117 23.5q63 0 115.5 -23.5t88.5 -64.5t55.5 -94.5t19.5 -110.5z" />
<glyph d="M111 727h804v-188h-804v188z" />
<glyph d="M0 727h1024v-188h-1024v188z" />
<glyph d="M317 975l207 96l301 -438l-301 -440l-207 98l187 342z" />
<glyph d="M371 324q0 74 3 132t8 111.5t12 106.5t16 119h208q8 -66 16.5 -119t14.5 -106.5t9 -111.5t3 -132v-336h-290v336zM346 1110q0 80 52 124t118 44t118 -44t52 -124t-52 -124t-118 -44t-118 44t-52 124z" />
<glyph d="M381 1057l133 -82l-192 -342l192 -342l-129 -86l-283 428zM788 1057l136 -82l-191 -342l191 -342l-131 -86l-279 428z" />
<glyph d="M645 205l-133 82l193 344l-193 342l129 84l283 -426zM238 205l-136 82l191 344l-191 342l131 84l279 -426z" />
<glyph d="M690 801q2 -10 2 -31q0 -82 -43 -156.5t-112 -131.5q-23 -18 -46.5 -37t-42 -37.5t-29.5 -40t-11 -45.5q0 -61 43 -93t108 -32q66 0 127.5 19.5t132.5 54.5l70 -193q-72 -45 -168 -69.5t-191 -24.5q-117 0 -192.5 30.5t-118.5 79t-60.5 104.5t-17.5 107q0 59 23.5 107.5 t59.5 88.5t77 76t77 70.5t59.5 71.5t23.5 82h229zM389 1116q0 80 52.5 125t117.5 45q33 0 63.5 -11t55 -33.5t39 -54.5t14.5 -71t-14.5 -70.5t-39 -53t-55 -33t-63.5 -11.5t-63.5 11.5t-54 33t-38 53t-14.5 70.5z" />
</font>
</defs>
</svg>
